<svg xmlns="http://www.w3.org/2000/svg" width="15.238" height="15.232" viewBox="0 0 15.238 15.232"><defs><style>.a{fill:#3e3e3e;}</style></defs><g transform="translate(0 -0.102)"><path class="a" d="M.224,3.358a.224.224,0,0,0,.224-.224V2.73H13.67V4.848a.224.224,0,1,0,.447,0V1.041A.94.94,0,0,0,13.178.1H.939A.94.94,0,0,0,0,1.041V3.135a.224.224,0,0,0,.224.224ZM.939.549H13.178a.492.492,0,0,1,.492.492V2.283H.447V1.041A.492.492,0,0,1,.939.549Z" transform="translate(0)"/><path class="a" d="M4.927,136.222H.939a.492.492,0,0,1-.492-.492v-9.192a.224.224,0,0,0-.447,0v9.192a.94.94,0,0,0,.939.939H4.927a.224.224,0,0,0,0-.447Z" transform="translate(0 -122.45)"/><path class="a" d="M196.383,181.811h-7.539a1.052,1.052,0,0,0-1.05,1.05v2.9a.224.224,0,1,0,.447,0v-1.5h8.746v6.31a.6.6,0,0,1-.6.6h-7.539a.6.6,0,0,1-.6-.6v-3.857a.224.224,0,1,0-.447,0v3.857a1.052,1.052,0,0,0,1.05,1.05h7.539a1.052,1.052,0,0,0,1.05-1.05v-7.715A1.052,1.052,0,0,0,196.383,181.811Zm-8.143,2.008v-.957a.6.6,0,0,1,.6-.6h7.539a.6.6,0,0,1,.6.6v.957Z" transform="translate(-182.195 -176.293)"/><path class="a" d="M38.684,36.749h.168a.224.224,0,1,0,0-.447h-.168a.224.224,0,1,0,0,.447Z" transform="translate(-37.314 -35.121)"/><path class="a" d="M90.85,36.749h.168a.224.224,0,0,0,0-.447H90.85a.224.224,0,0,0,0,.447Z" transform="translate(-87.925 -35.121)"/><path class="a" d="M143.016,36.749h.168a.224.224,0,1,0,0-.447h-.168a.224.224,0,1,0,0,.447Z" transform="translate(-138.536 -35.121)"/><path class="a" d="M244.25,304.473h-.941a.224.224,0,0,0,0,.447h.941a.682.682,0,0,0,.681-.681v-.949a.682.682,0,0,0-.681-.681h-5.266a.682.682,0,0,0-.681.681v.949a.682.682,0,0,0,.681.681h3.372a.224.224,0,1,0,0-.447h-3.372a.235.235,0,0,1-.234-.234v-.949a.235.235,0,0,1,.234-.234h5.266a.235.235,0,0,1,.234.234v.949A.235.235,0,0,1,244.25,304.473Z" transform="translate(-231.199 -293.489)"/><path class="a" d="M62.734,135.5h9.479a.224.224,0,1,0,0-.447H62.734a.5.5,0,0,0-.5.5v2.788a.5.5,0,0,0,.5.5h2.014a.224.224,0,1,0,0-.447H62.734a.048.048,0,0,1-.048-.048v-2.788A.048.048,0,0,1,62.734,135.5Z" transform="translate(-60.384 -130.927)"/><path class="a" d="M64.741,293.608H62.463a.224.224,0,0,0,0,.447h2.278a.224.224,0,0,0,0-.447Z" transform="translate(-60.384 -284.757)"/><path class="a" d="M64.741,349.831H62.463a.224.224,0,1,0,0,.447h2.278a.224.224,0,0,0,0-.447Z" transform="translate(-60.384 -339.305)"/><path class="a" d="M238.526,430.38h6.182a.224.224,0,0,0,0-.447h-6.182a.224.224,0,1,0,0,.447Z" transform="translate(-231.199 -417.019)"/></g></svg>