<svg xmlns="http://www.w3.org/2000/svg" width="11.744" height="15.418" viewBox="0 0 11.744 15.418"><defs><style>.a{fill:#3e3e3e;}</style></defs><g transform="translate(-61)"><path class="a" d="M72.744.9H69.131V0H64.614V.9H61V15.418H72.744ZM65.517.9h2.71v.9h-2.71Zm6.324,13.611H61.9V1.807h2.71v.9h4.517v-.9h2.71Z" transform="translate(0)"/><path class="a" d="M271,121h3.614v.9H271Z" transform="translate(-203.676 -117.356)"/><path class="a" d="M271,181h1.807v.9H271Z" transform="translate(-203.676 -175.549)"/><path class="a" d="M271,241h3.614v.9H271Z" transform="translate(-203.676 -233.743)"/><path class="a" d="M271,301h1.807v.9H271Z" transform="translate(-203.676 -291.936)"/><path class="a" d="M271,361h3.614v.9H271Z" transform="translate(-203.676 -350.129)"/><path class="a" d="M271,421h1.807v.9H271Z" transform="translate(-203.676 -408.322)"/><path class="a" d="M121,123.71h2.71V121H121Zm.9-1.807h.9v.9h-.9Z" transform="translate(-58.193 -117.356)"/><path class="a" d="M121,243.71h2.71V241H121Zm.9-1.807h.9v.9h-.9Z" transform="translate(-58.193 -233.743)"/><path class="a" d="M121,363.71h2.71V361H121Zm.9-1.807h.9v.9h-.9Z" transform="translate(-58.193 -350.129)"/></g></svg>