<svg xmlns="http://www.w3.org/2000/svg" width="13.752" height="14.668" viewBox="0 0 13.752 14.668"><defs><style>.a{fill:#3e3e3e;}</style></defs><path class="a" d="M7.155,7.429H8.988V9.262H7.155Zm2.75,0h1.834V9.262H9.9Zm2.75,0h1.834V9.262H12.655ZM4.4,12.929H6.238v1.834H4.4Zm2.75,0H8.988v1.834H7.155Zm2.75,0h1.834v1.834H9.9Zm-2.75-2.75H8.988v1.834H7.155Zm2.75,0h1.834v1.834H9.9Zm2.75,0h1.834v1.834H12.655Zm-8.251,0H6.238v1.834H4.4ZM14.489,1.928v.917H12.655V1.928H6.238v.917H4.4V1.928H2.571V16.6H16.322V1.928H14.489Zm.917,13.752H3.487V5.6H15.406Z" transform="translate(-2.571 -1.928)"/></svg>