<svg xmlns="http://www.w3.org/2000/svg" width="25.472" height="25.472" viewBox="0 0 25.472 25.472"><defs><style>.a{fill:#3e3e3e;}</style></defs><path class="a" d="M15.723,3A12.736,12.736,0,1,0,28.472,15.736,12.73,12.73,0,0,0,15.723,3Zm8.826,7.642H20.792a19.931,19.931,0,0,0-1.758-4.534A10.226,10.226,0,0,1,24.549,10.642ZM15.736,5.6a17.941,17.941,0,0,1,2.433,5.043H13.3A17.941,17.941,0,0,1,15.736,5.6ZM5.878,18.283a9.962,9.962,0,0,1,0-5.094h4.3A21.034,21.034,0,0,0,10,15.736a21.034,21.034,0,0,0,.178,2.547ZM6.923,20.83H10.68a19.931,19.931,0,0,0,1.758,4.534A10.172,10.172,0,0,1,6.923,20.83ZM10.68,10.642H6.923a10.172,10.172,0,0,1,5.515-4.534A19.93,19.93,0,0,0,10.68,10.642Zm5.056,15.232A17.941,17.941,0,0,1,13.3,20.83h4.865A17.941,17.941,0,0,1,15.736,25.874Zm2.98-7.591h-5.96a18.738,18.738,0,0,1-.2-2.547,18.575,18.575,0,0,1,.2-2.547h5.96a18.575,18.575,0,0,1,.2,2.547A18.738,18.738,0,0,1,18.716,18.283Zm.318,7.081a19.931,19.931,0,0,0,1.758-4.534h3.757A10.227,10.227,0,0,1,19.035,25.364Zm2.254-7.081a21.033,21.033,0,0,0,.178-2.547,21.034,21.034,0,0,0-.178-2.547h4.3a9.962,9.962,0,0,1,0,5.094Z" transform="translate(-3 -3)"/></svg>