<svg xmlns="http://www.w3.org/2000/svg" width="20.935" height="17.385" viewBox="0 0 20.935 17.385"><defs><style>.a{fill:none;stroke-linecap:round;stroke-linejoin:round;}.b,.c{stroke:none;}.c{fill:#3e3e3e;}</style></defs><g class="a" transform="translate(-1.571 -4.784)"><path class="b" d="M17.956,21.169l3.55-9.468H6.121l-3.55,9.468ZM4.938,10.518,2.571,21.169V5.784H7.9l2.367,2.367h7.692v2.367Z"/><path class="c" d="M 17.95559692382813 21.16899871826172 L 21.50595664978027 11.70136833190918 L 6.121056079864502 11.70136833190918 L 2.570696353912354 21.16899871826172 L 17.95559692382813 21.16899871826172 M 2.570696353912354 21.16899871826172 L 4.937606334686279 10.51791858673096 L 17.95559692382813 10.51791858673096 L 17.95559692382813 8.151008605957031 L 10.26314640045166 8.151008605957031 L 7.896236419677734 5.784098148345947 L 2.570696353912354 5.784098148345947 L 2.570696353912354 21.16899871826172 M 2.571558713912964 22.1690616607666 C 2.544084787368774 22.1690616607666 2.516455888748169 22.16793251037598 2.488656759262085 22.16563415527344 C 2.488380193710327 22.16561126708984 2.488126516342163 22.16559028625488 2.487849950790405 22.16556739807129 C 2.487726449966431 22.16555595397949 2.487565040588379 22.16554260253906 2.487441539764404 22.1655330657959 C 2.464996814727783 22.16366004943848 2.442673444747925 22.16103363037109 2.420543909072876 22.15767478942871 C 2.420055389404297 22.15760040283203 2.419583320617676 22.15752792358398 2.419095039367676 22.1574535369873 C 2.418978214263916 22.15743446350098 2.418885707855225 22.15742111206055 2.418768882751465 22.15740203857422 C 2.211901187896729 22.1257266998291 2.027436971664429 22.03164291381836 1.88377058506012 21.89574432373047 C 1.883499622344971 21.89548873901367 1.883247256278992 21.89525032043457 1.882976651191711 21.89499282836914 C 1.882786154747009 21.89481353759766 1.882606029510498 21.89464378356934 1.882415652275085 21.89446258544922 C 1.85028600692749 21.86397933959961 1.820029020309448 21.83120918273926 1.791927695274353 21.79631805419922 C 1.791671633720398 21.79599952697754 1.791396498680115 21.79565811157227 1.791140794754028 21.79533958435059 C 1.791115999221802 21.79530906677246 1.791093587875366 21.79528045654297 1.79106879234314 21.79524993896484 C 1.657615542411804 21.62918090820313 1.576529860496521 21.42010688781738 1.571000814437866 21.19381904602051 C 1.570998430252075 21.19372177124023 1.570996046066284 21.19363212585449 1.570993661880493 21.19353485107422 C 1.570984721183777 21.19316291809082 1.570974349975586 21.1927318572998 1.570965766906738 21.19235992431641 C 1.570756912231445 21.18344688415527 1.570666551589966 21.17448616027832 1.570696234703064 21.16556167602539 L 1.570696234703064 5.784098148345947 C 1.570696234703064 5.231818199157715 2.018416166305542 4.784098148345947 2.570696353912354 4.784098148345947 L 7.896236419677734 4.784098148345947 C 8.161456108093262 4.784098148345947 8.415805816650391 4.889458179473877 8.60334587097168 5.076988220214844 L 10.67736625671387 7.151008129119873 L 17.95559692382813 7.151008129119873 C 18.50787544250488 7.151008129119873 18.95559692382813 7.598728179931641 18.95559692382813 8.151008605957031 L 18.95559692382813 10.51791858673096 C 18.95559692382813 10.58058261871338 18.94983291625977 10.64189720153809 18.93880653381348 10.70136833190918 L 21.50595664978027 10.70136833190918 C 21.83393669128418 10.70136833190918 22.14106559753418 10.86219787597656 22.3278865814209 11.1317777633667 C 22.51469612121582 11.40134811401367 22.55744552612305 11.74539852142334 22.44228553771973 12.05248832702637 L 18.89192581176758 21.52011871337891 C 18.74556541442871 21.91042900085449 18.3724365234375 22.16899871826172 17.95559692382813 22.16899871826172 L 2.582754135131836 22.16899871826172 C 2.579041004180908 22.16903877258301 2.575278997421265 22.1690616607666 2.571558713912964 22.1690616607666 Z"/></g></svg>