<svg version="1.1" id="Layer_1" width="150" height="160" xmlns="http://www.w3.org/2000/svg" xmlns:xlink="http://www.w3.org/1999/xlink" x="0px" y="0px"
	 viewBox="0 0 512 512" style="enable-background:new 0 0 512 512;" xml:space="preserve">
<g>
	<path style="fill:#fff;" d="M72.17,430.98c-7.387,1.921-10.257,2.593-13.416,2.593c-5.744,0-10.411-1.38-13.5-3.995
		c-0.511-0.431-0.938-0.949-1.263-1.534c-1.132-2.005-0.701-4.736,1.044-6.635c0.179-0.19,0.362-0.372,0.427-0.486
		c5.857-1.749,12.919-3.009,19.886-3.557l0.212-0.015l1.384-6.379l-0.402,0.044c-4.707,0.555-9.063,1.304-12.824,2.217
		c-5.839-1.077-10.159-5.853-10.783-11.725c2.286-4.386,7.095-7.456,11.692-7.456c2.348,0,4.506,0.555,8.563,2.195l0.237,0.099
		l1.315-2.392l-0.23-0.142c-1.497-0.96-2.655-1.826-3.776-2.669c-1.479-1.106-2.878-2.158-5.05-3.345
		c-8.282,0-17.148,6.383-17.148,15.895c0,4.689,2.845,9.574,7.124,12.313c-0.416,0.226-1.789,1.03-1.789,1.03
		c-0.869,0.551-1.672,1.493-2.385,2.804c-2.585,4.769-2.289,10.407,0.756,14.362c1.84,2.392,4.353,4.046,7.263,4.78
		c2.735,0.69,5.817,1.044,9.151,1.044h0.062l0.055-0.022c2.604-1.143,4.813-2.158,6.967-3.144c2.388-1.092,4.7-2.151,7.383-3.312
		l0.252-0.11l-0.957-2.523L72.17,430.98z M213.35,387.037c-8.413,0-13.777,12.269-13.777,18.689c0,5.251,5.828,8.957,18.962,12.036
		H85.257c-0.172-15.227-0.559-23.461-1.263-38.334l-0.289-6.175h-6.562l0.029,0.31c1.859,20.832,2.578,34.175,3.181,50.18
		l0.007,0.274h144.455l0.044-0.23c0.274-1.373,1.11-10.432,1.11-12.664C225.97,396.038,221.255,387.037,213.35,387.037
		 M221.062,412.696c-8.026-1.647-11.919-3.305-17.06-7.044c0.584-6.737,4.59-12.649,8.577-12.649c4.995,0,8.483,7.887,8.483,19.178
		V412.696z M218.133,378.072l-5.028-4.82l-5.32,5.525l5.448,4.926L218.133,378.072z M433.59,382.673l-5.028-4.82l-5.32,5.528
		l5.448,4.922L433.59,382.673z M370.962,382.772l-5.028-4.919l-5.32,5.525l5.444,4.922L370.962,382.772z M359.492,382.669
		l-5.028-4.816l-5.317,5.525l5.448,4.926L359.492,382.669z M391.443,392.591l-6.116,3.48l0.128,0.248
		c4.236,8.278,6.814,15.001,8.362,21.654c-2.33,7.449-7.318,13.357-13.043,15.435c-2.56,1.147-6.591,1.891-10.779,1.997
		l-0.267,0.007l-0.117,2.651l14.248,1.902c8.771-6.675,13.796-15.358,13.796-23.834c0-5.276-1.877-12.441-6.091-23.228
		L391.443,392.591z M414.967,424.005c-0.46-20.927-0.84-30.534-1.72-50.479l-0.011-0.274h-6.562l0.026,0.31
		c1.501,19.408,2.103,30.786,2.943,46.528l0.208,3.914H414.967z M433.243,392.591l-6.116,3.48l0.128,0.248
		c4.236,8.278,6.814,15.001,8.362,21.654c-2.326,7.449-7.318,13.357-13.043,15.435c-2.56,1.147-6.587,1.891-10.779,1.997
		l-0.267,0.007l-0.117,2.651l14.248,1.902c8.771-6.675,13.796-15.358,13.796-23.834c0-5.276-1.877-12.441-6.091-23.228
		L433.243,392.591z M460.841,391.565c-7.917,0-13.872,11.163-13.872,18.4c0,6.197,6.77,10.305,20.69,12.558
		c-2.213,5.05-6.186,9.169-10.692,11.072c-2.472,1.103-6.292,1.713-11.356,1.811l-0.259,0.004l-0.241,2.651l14.267,1.906
		c9.085-6.741,14.084-15.753,14.084-25.375C473.461,400.602,468.509,391.565,460.841,391.565 M451.395,409.903
		c0.763-6.587,4.82-12.368,8.676-12.368c4.831,0,8.161,7.215,8.939,19.324C460.082,415.555,454.619,413.339,451.395,409.903
		 M297.737,373.526l-0.007-0.274h-6.562l0.026,0.31c1.38,17.849,1.99,28.657,2.819,44.198h-29.355c-2.793,0-4.824-1.53-6.591-4.959
		c-2.615-4.915-4.291-12.167-5.266-22.819l-0.037-0.398l-5.671,2.465l0.033,0.215c1.523,10.703,4.141,19.536,7.358,24.867
		c0.194,0.325,0.391,0.606,0.606,0.902c-3.297,0.57-6.471,0.69-10.188,0.69c-4.448,0-8.351-0.416-12.656-1.344l-0.296-0.062
		l-1.059,5.952l0.263,0.062c4.298,1.048,9.1,1.651,13.171,1.651c4.185,0,8.614-0.121,12.682-0.971l0.172-0.037l0.694-2.695
		c1.986,1.767,4.141,2.68,6.306,2.684l0.201,0.051l35.095-0.011l-0.011-0.292C299.004,402.585,298.625,393.599,297.737,373.526
		 M375.862,417.085c0.026-3.746-6.208-16.834-11.283-24.699c-1.271,0.624-3.458,2.26-4.816,3.345
		c-7.153,5.744-12.13,13.346-12.13,18.557c0,5.897,6.182,10.695,13.781,10.695c4.663,0,9.18-1.176,12.499-3.352L375.862,417.085z
		 M361.895,418.918c-4.028,0-7.687-1.76-9.753-4.444c1.888-5.66,5.722-10.9,10.542-14.416c3.378,5.32,5.689,10.17,7.92,16.615
		C367.913,418.327,364.364,418.918,361.895,418.918 M316.046,424.005c-0.464-20.934-0.844-30.542-1.724-50.479l-0.011-0.274h-6.562
		l0.026,0.31c1.501,19.408,2.103,30.786,2.943,46.528l0.208,3.914H316.046z"/>
	<polygon style="fill:#fff;" points="53.983,465.76 43.909,451.567 38.541,451.567 40.363,454.119 40.363,480.414 
		44.015,480.414 44.015,459.231 53.264,472.187 62.919,459.271 62.919,480.414 67.286,480.414 67.286,451.567 64.817,451.567 	"/>
	<polygon style="fill:#fff;" points="214.223,464.132 207.654,451.797 207.53,451.567 202.663,451.567 211.47,468.251 
		211.47,480.414 215.837,480.414 215.837,468.558 225.28,451.567 221.169,451.567 	"/>
	<path style="fill:#fff;" d="M194.372,466.422c0.676-0.456,1.311-1.022,1.888-1.687c0.581-0.668,1.081-1.464,1.483-2.363
		c0.402-0.898,0.61-1.928,0.61-3.06c0-1.373-0.267-2.585-0.789-3.604c-0.526-1.019-1.252-1.873-2.162-2.541
		c-0.909-0.672-1.997-1.187-3.239-1.53c-1.227-0.343-2.596-0.515-4.068-0.515c-1.8,0-3.312,0.091-4.488,0.267
		c-1.055,0.157-2.129,0.347-3.181,0.562l-0.343,0.069v28.394h4.371v-11.703l4.188,0.044l8.358,11.659h5.463l-9.878-13.018
		C193.119,467.185,193.722,466.856,194.372,466.422 M193.605,461.81c-0.241,0.617-0.566,1.179-0.957,1.676
		c-0.383,0.493-0.796,0.909-1.22,1.249c-0.34,0.274-0.734,0.559-1.3,0.825h-5.674v-11.152h2.465c2.392,0,4.188,0.42,5.339,1.249
		c1.147,0.829,1.724,2.195,1.724,4.057C193.981,460.484,193.857,461.189,193.605,461.81"/>
	<rect x="76.416" y="451.567" style="fill:#fff;" width="4.367" height="28.847"/>
	<rect x="121.48" y="451.567" style="fill:#fff;" width="4.371" height="28.847"/>
	<polygon style="fill:#fff;" points="108.655,471.372 92.833,451.57 87.367,451.57 90.27,455.196 90.27,480.417 93.921,480.417 
		93.921,459.804 110.332,480.417 112.347,480.417 112.347,451.57 108.655,451.57 	"/>
	<polygon style="fill:#fff;" points="153.765,455.128 162.328,455.128 162.328,480.415 166.699,480.415 166.699,455.128 
		174.531,455.128 175.904,451.567 153.765,451.567 	"/>
	<path style="fill:#fff;" d="M148.529,468.282L148.529,468.282c-0.508-0.584-1.07-1.106-1.669-1.552
		c-0.595-0.445-1.169-0.84-1.702-1.168l-2.644-1.661c-0.573-0.329-1.11-0.65-1.618-0.982c-0.5-0.325-0.96-0.686-1.362-1.07
		c-0.405-0.394-0.727-0.814-0.957-1.249c-0.237-0.442-0.354-0.964-0.354-1.556c0-0.708,0.146-1.344,0.442-1.892
		c0.296-0.548,0.701-1.004,1.205-1.358c0.497-0.354,1.073-0.624,1.713-0.803c0.639-0.179,1.322-0.267,2.03-0.267
		c1.336,0,2.531,0.278,3.557,0.825c0.716,0.387,1.377,0.84,1.95,1.347l0.716,0.628v-4.557l-0.208-0.128
		c-0.241-0.142-0.537-0.299-0.887-0.464c-0.453-0.208-0.968-0.405-1.526-0.581c-0.548-0.175-1.128-0.325-1.775-0.453
		c-2.096-0.398-4.09-0.139-5.755,0.409c-1.183,0.383-2.209,0.953-3.06,1.683c-0.855,0.738-1.523,1.632-1.983,2.658
		c-0.464,1.026-0.697,2.184-0.697,3.443c0,1.41,0.424,2.731,1.263,3.94c0.833,1.209,2.209,2.41,4.086,3.575l3.746,2.264
		c0.42,0.245,0.847,0.562,1.271,0.938c0.409,0.362,0.771,0.792,1.074,1.271c0.296,0.471,0.442,1.022,0.442,1.643
		c0,0.65-0.142,1.242-0.42,1.753c-0.285,0.522-0.668,0.971-1.139,1.336c-0.475,0.376-1.022,0.665-1.629,0.869
		c-0.606,0.212-1.242,0.318-1.895,0.318c-1.537,0-2.907-0.267-4.064-0.785c-0.884-0.394-1.731-0.88-2.527-1.439l-0.792-0.559
		l0.632,4.988l0.248,0.088c0.942,0.351,1.968,0.646,3.045,0.88c1.165,0.256,2.421,0.383,3.728,0.383
		c1.315,0,2.552-0.197,3.692-0.584c1.136-0.391,2.129-0.953,2.943-1.665c0.822-0.716,1.472-1.592,1.939-2.611
		c0.46-1.019,0.697-2.154,0.697-3.378c0-0.898-0.168-1.734-0.497-2.476C149.46,469.541,149.037,468.87,148.529,468.282"/>
	<path style="fill:#fff;" d="M447.65,468.281c-0.508-0.581-1.07-1.103-1.665-1.552c-0.588-0.438-1.161-0.833-1.705-1.165
		l-2.647-1.661c-0.57-0.329-1.103-0.654-1.614-0.986c-0.497-0.321-0.953-0.679-1.358-1.07c-0.402-0.387-0.723-0.807-0.96-1.249
		c-0.237-0.445-0.358-0.968-0.358-1.556c0-0.705,0.15-1.344,0.446-1.891c0.296-0.548,0.701-1.004,1.205-1.355
		c0.5-0.358,1.077-0.628,1.716-0.803c0.635-0.179,1.318-0.27,2.03-0.27c1.336,0,2.527,0.278,3.549,0.825
		c0.719,0.387,1.38,0.84,1.954,1.347l0.716,0.628v-4.557l-0.208-0.128c-0.241-0.142-0.537-0.299-0.884-0.46
		c-0.456-0.212-0.975-0.409-1.53-0.584c-0.555-0.175-1.136-0.325-1.775-0.449c-2.107-0.405-4.09-0.142-5.755,0.405
		c-1.183,0.387-2.213,0.957-3.06,1.683c-0.858,0.741-1.526,1.636-1.983,2.658c-0.464,1.033-0.698,2.191-0.698,3.443
		c0,1.406,0.427,2.731,1.267,3.944c0.833,1.205,2.205,2.406,4.086,3.571l3.743,2.264c0.424,0.245,0.851,0.562,1.271,0.938
		c0.416,0.369,0.774,0.796,1.074,1.271c0.296,0.471,0.442,1.022,0.442,1.643c0,0.65-0.139,1.242-0.42,1.756
		c-0.281,0.515-0.665,0.968-1.139,1.336c-0.471,0.369-1.019,0.661-1.625,0.869c-0.606,0.208-1.245,0.314-1.895,0.314
		c-1.541,0-2.91-0.267-4.068-0.781c-0.884-0.402-1.731-0.884-2.523-1.439l-0.796-0.562l0.632,4.988l0.248,0.091
		c0.949,0.351,1.976,0.646,3.045,0.88c1.165,0.252,2.421,0.38,3.732,0.38c1.311,0,2.552-0.197,3.684-0.584
		c1.139-0.391,2.129-0.953,2.95-1.665c0.822-0.716,1.472-1.596,1.935-2.611c0.46-1.015,0.694-2.151,0.694-3.378
		c0-0.902-0.168-1.738-0.489-2.476C448.585,469.537,448.158,468.865,447.65,468.281"/>
	<polygon style="fill:#fff;" points="383.449,467.456 391.555,467.456 392.877,464.079 383.449,464.079 383.449,454.946 
		393.435,454.946 394.808,451.568 379.078,451.568 379.078,480.416 393.79,480.416 395.619,476.903 383.449,476.903 	"/>
	<polygon style="fill:#fff;" points="357.513,480.415 361.884,480.415 361.884,468.084 370.209,468.084 371.579,464.706 
		361.884,464.706 361.884,454.945 372.137,454.945 373.507,451.568 357.513,451.568 	"/>
	<path style="fill:#fff;" d="M261.793,455.278c-1.253-1.326-2.764-2.37-4.499-3.1c-1.731-0.734-3.648-1.103-5.704-1.103
		c-2.052,0-3.973,0.369-5.707,1.103c-1.727,0.727-3.243,1.771-4.495,3.1c-1.256,1.329-2.242,2.925-2.943,4.74
		c-0.701,1.815-1.055,3.841-1.055,6.018c0,2.209,0.354,4.247,1.055,6.065c0.697,1.815,1.687,3.4,2.943,4.721
		c1.253,1.311,2.768,2.344,4.495,3.075c1.731,0.734,3.648,1.103,5.707,1.103c2.056,0,3.977-0.369,5.704-1.103
		c1.735-0.734,3.246-1.775,4.495-3.1c1.253-1.318,2.238-2.914,2.943-4.743c0.701-1.818,1.059-3.845,1.059-6.018
		s-0.358-4.199-1.059-6.018C264.028,458.192,263.042,456.597,261.793,455.278 M261.154,466.036c0,1.654-0.219,3.199-0.65,4.59
		c-0.427,1.38-1.052,2.582-1.855,3.575c-0.8,0.993-1.804,1.782-2.991,2.344c-1.187,0.566-2.556,0.851-4.068,0.851
		s-2.885-0.285-4.068-0.851c-1.187-0.562-2.202-1.351-3.016-2.344c-0.814-0.986-1.439-2.191-1.855-3.575
		c-0.416-1.38-0.628-2.925-0.628-4.59c0-1.629,0.219-3.162,0.65-4.561c0.427-1.391,1.052-2.6,1.855-3.604
		c0.803-0.993,1.811-1.782,2.994-2.344c1.187-0.562,2.556-0.847,4.068-0.847s2.881,0.285,4.068,0.847
		c1.187,0.566,2.195,1.355,2.991,2.344c0.803,0.997,1.428,2.209,1.855,3.6C260.935,462.877,261.154,464.411,261.154,466.036"/>
	<polygon style="fill:#fff;" points="461.29,476.903 461.29,467.457 469.396,467.457 470.718,464.075 461.29,464.075 
		461.29,454.947 471.277,454.947 472.65,451.569 456.922,451.569 456.922,480.416 471.635,480.416 473.46,476.903 	"/>
	<polygon style="fill:#fff;" points="421.231,471.373 405.406,451.567 399.939,451.567 402.846,455.197 402.846,480.415 
		406.497,480.415 406.497,459.805 422.904,480.415 424.923,480.415 424.923,451.567 421.231,451.567 	"/>
	<polygon style="fill:#fff;" points="338.517,467.456 346.624,467.456 347.949,464.079 338.517,464.079 338.517,454.946 
		348.504,454.946 349.877,451.568 334.15,451.568 334.15,480.416 348.862,480.416 350.692,476.903 338.517,476.903 	"/>
	<polygon style="fill:#fff;" points="272.228,480.415 276.596,480.415 276.596,468.084 284.925,468.084 286.294,464.706 
		276.596,464.706 276.596,454.945 286.853,454.945 288.222,451.568 272.228,451.568 	"/>
	<path style="fill:#fff;" d="M323.781,455.183c-1.271-1.296-2.841-2.308-4.674-3.009c-1.84-0.697-3.933-1.052-6.222-1.052
		c-1.844,0-3.476,0.088-4.846,0.267c-1.234,0.161-2.41,0.351-3.495,0.566l-0.347,0.066v27.807l0.321,0.084
		c0.99,0.263,2.173,0.508,3.516,0.727c1.464,0.241,3.082,0.361,4.805,0.361c2.238,0,4.298-0.365,6.131-1.081
		c1.837-0.712,3.418-1.742,4.696-3.053c1.285-1.318,2.289-2.896,2.987-4.696c0.701-1.8,1.059-3.831,1.059-6.043
		c0-2.293-0.34-4.386-1.012-6.222C326.034,458.072,325.048,456.487,323.781,455.183 M323.076,466.171c0,1.461-0.23,2.888-0.694,4.25
		c-0.46,1.369-1.128,2.6-1.983,3.666c-0.854,1.066-1.928,1.932-3.184,2.571c-1.877,0.949-4.298,1.194-6.777,0.738
		c-0.796-0.146-1.428-0.278-1.87-0.394v-22.592h3.228c1.808,0,3.429,0.292,4.816,0.873c1.395,0.577,2.578,1.391,3.52,2.414
		c0.942,1.022,1.68,2.268,2.184,3.714C322.821,462.859,323.076,464.458,323.076,466.171"/>
</g>
	<g>
		<path style="fill:#DBBF74;" d="M260.474,43.687L260.474,43.687h-8.946c0-1.994,1.307-3.684,3.115-4.261
			c0.427-0.139,0.884-0.212,1.358-0.212C258.469,39.214,260.474,41.219,260.474,43.687"/>
		<path style="fill:#9E892E;" d="M260.474,43.688c0,2.468-2.001,4.473-4.473,4.473c-0.153,0-0.307-0.007-0.456-0.022
			c-1.435-0.146-2.669-0.971-3.378-2.151c-0.405-0.672-0.639-1.457-0.639-2.3H260.474z"/>
		<path style="fill:#DBBF74;" d="M256.001,31L256.001,31c-0.92,2.538-3.239,6.544-3.239,6.544h3.239h3.242
			C259.243,37.544,256.921,33.538,256.001,31"/>
		<path style="fill:#9E892E;" d="M256.001,37.544L256.001,37.544h-3.239l1.881,1.881c0.427-0.135,0.884-0.208,1.358-0.208
			c0.475,0,0.931,0.073,1.358,0.208l1.884-1.881H256.001z"/>
		<path style="fill:#9EA5A9;" d="M208.893,125.98c-0.424,0.274-0.844,0.559-1.263,0.844l0.909,1.165
			c0.431-0.288,0.862-0.581,1.296-0.862c11.378-7.362,24.611-12.072,38.834-13.292c0.007-0.493,0.04-0.982,0.066-1.475
			C234.136,113.576,220.552,118.407,208.893,125.98"/>
		<path style="fill:#9EA5A9;" d="M194.539,119.959c-7.643,5.974-14.394,13.032-20.025,20.942l-1.296-0.719
			c5.733-8.081,12.62-15.293,20.42-21.387L194.539,119.959z"/>
		<path style="fill:#9EA5A9;" d="M256.001,313.454c-1.486,0-2.965-0.029-4.437-0.084c0.19,0.208,0.383,0.413,0.577,0.613
			l0.869,0.906c0.993,0.026,1.99,0.04,2.991,0.04c1,0,1.997-0.015,2.991-0.04l0.869-0.906c0.194-0.201,0.387-0.405,0.581-0.613
			C258.966,313.424,257.487,313.454,256.001,313.454"/>
		<path style="fill:#9EA5A9;" d="M241.732,252.647c3.093,0.862,5.872,1.347,9.001,1.64v1.475c-2.983-0.267-5.565-0.697-8.497-1.457
			L241.732,252.647z"/>
		<path style="fill:#9EA5A9;" d="M143.115,171.257c0.391,0.153,0.862,0.314,1.399,0.475h0.004
			c10.352-42.723,44.695-76.179,87.9-85.242c-0.19-0.42-0.416-0.88-0.683-1.362C188.194,94.417,153.61,128.172,143.115,171.257"/>
		<path style="fill:#9EA5A9;" d="M166.539,154.159c-3.078,6.149-5.54,12.664-7.303,19.452c-0.515,0.007-1.023,0.007-1.526,0.007
			c1.793-7.011,4.32-13.733,7.489-20.076L166.539,154.159z"/>
		<path style="fill:#9EA5A9;" d="M157.322,182.686c-0.847,5.233-1.293,10.601-1.293,16.067c0,7.113,0.752,14.055,2.169,20.748
			c-0.467,0.168-0.931,0.34-1.395,0.515c-1.472-6.858-2.249-13.971-2.249-21.263c0-5.55,0.453-10.995,1.311-16.304L157.322,182.686z
			"/>
		<path style="fill:#9EA5A9;" d="M317.195,119.751c8.61,6.686,16.103,14.745,22.147,23.845c0.573-0.033,1.15-0.051,1.724-0.058
			c-6.219-9.545-13.993-17.984-22.968-24.951L317.195,119.751z"/>
		<path style="fill:#9EA5A9;" d="M293.859,155.834c1.658,1.464,3.228,3.023,4.707,4.667l-1.362,0.694
			c-1.34-1.472-2.761-2.874-4.25-4.192L293.859,155.834z"/>
		<path style="fill:#9EA5A9;" d="M300.054,141.858c4.44,3.447,8.464,7.398,11.992,11.773l-1.34,0.683
			c-3.407-4.188-7.285-7.979-11.554-11.291L300.054,141.858z"/>
		<path style="fill:#9EA5A9;" d="M308.174,131.385c5.988,4.648,11.338,10.078,15.906,16.133c0.456-0.219,0.913-0.427,1.373-0.624
			c-4.689-6.262-10.199-11.875-16.377-16.673L308.174,131.385z"/>
		<path style="fill:#9EA5A9;" d="M142.308,174.811c-1.625,7.727-2.483,15.738-2.483,23.94c0,13.733,2.395,26.919,6.792,39.159
			l1.329-0.665c-4.301-12.039-6.646-24.995-6.646-38.495c0-7.624,0.749-15.077,2.176-22.293c-0.5-0.595-0.876-1.114-1.165-1.647
			H142.308z"/>
		<path style="fill:#9EA5A9;" d="M169.587,191.492c-0.197,2.395-0.299,4.816-0.299,7.259c0,5.926,0.599,11.718,1.734,17.312
			l1.461-0.219c-1.128-5.525-1.724-11.239-1.724-17.093c0-2.384,0.102-4.747,0.292-7.084c-0.504-0.047-0.986-0.11-1.461-0.175
			H169.587z"/>
		<path style="fill:#9EA5A9;" d="M184.017,198.59c-0.011,5.236,0.54,10.349,1.596,15.271l1.461-0.223
			c-1.044-4.838-1.592-9.863-1.585-15.015h0.004C185.014,198.623,184.287,198.601,184.017,198.59z"/>
		<path style="fill:#9EA5A9;" d="M199.016,204.323c0.208,2.169,0.544,4.302,0.99,6.394l1.358-0.69
			c-0.383-1.877-0.676-3.783-0.869-5.722h0.004c-0.617,0.004-0.935,0.011-1.486,0.022L199.016,204.323z"/>
		<path style="fill:#9EA5A9;" d="M205.241,284.853c12.55,7.46,26.696,12.152,41.989,13.485c0,0-4.433,0.172-7.738,0.515
			c-12.729-2.092-24.086-6.215-34.759-12.591C204.733,286.262,205.16,285.181,205.241,284.853"/>
		<path style="fill:#9EA5A9;" d="M210.716,270.941c3.326,2.118,6.43,3.772,10.042,5.419c0.204,0.511,0.431,1.022,0.676,1.534
			l0.226,0.482c-4.159-1.8-7.719-3.692-11.513-6.094L210.716,270.941z"/>
		<path style="fill:#9EA5A9;" d="M235.944,313.193c-0.223-0.519-0.438-1.055-0.566-1.599c-16.509-3.009-31.798-9.563-45.046-18.846
			l0.004-0.004c-2.629-1.209-8.26-4.437-8.26-4.437C197.277,300.877,215.721,309.659,235.944,313.193"/>
		<path style="fill:#9EA5A9;" d="M217.238,257.626c1.329,0.876,2.688,1.713,4.079,2.501l-0.606,1.347
			c-1.439-0.811-2.845-1.669-4.221-2.574L217.238,257.626z"/>
		<path style="fill:#9EA5A9;" d="M250.732,269.067v1.475c-7.862-0.57-15.38-2.41-22.348-5.313c-0.321-0.467-0.628-0.946-0.909-1.435
			c-0.142-0.245-0.277-0.493-0.405-0.745C234.381,266.354,242.356,268.446,250.732,269.067"/>
		<path style="fill:#9EA5A9;" d="M178.581,159.712c-2.136,4.214-3.933,8.629-5.364,13.204c0.533-0.037,1.059-0.069,1.577-0.102
			c1.384-4.32,3.1-8.494,5.127-12.485L178.581,159.712z"/>
		<path style="fill:#9EA5A9;" d="M193.036,163.889c-1.537,2.768-2.899,5.649-4.072,8.625c0.522,0.033,1.037,0.073,1.541,0.12
			c1.114-2.782,2.399-5.481,3.845-8.074L193.036,163.889z"/>
		<path style="fill:#9EA5A9;" d="M206.168,170.581c-1.077,1.899-2.049,3.867-2.907,5.894v-0.004c0.424,0.256,0.844,0.519,1.26,0.8
			c0.869-2.074,1.859-4.082,2.961-6.018L206.168,170.581z"/>
		<path style="fill:#9EA5A9;" d="M218.915,157.119l-0.902-1.168c-2.494,2.216-4.795,4.645-6.869,7.259l1.34,0.686
			C214.438,161.464,216.589,159.193,218.915,157.119"/>
		<path style="fill:#9EA5A9;" d="M211.681,142.066c-5.258,4.119-9.925,8.954-13.865,14.354l1.329,0.676
			c3.827-5.211,8.351-9.881,13.438-13.865L211.681,142.066z"/>
		<path style="fill:#9EA5A9;" d="M202.659,130.43c-6.233,4.879-11.787,10.593-16.487,16.969l1.296,0.723
			c4.597-6.208,10.016-11.769,16.092-16.527L202.659,130.43z"/>
		<path style="fill:#9EA5A9;" d="M368.887,171.257c-0.391,0.153-0.866,0.314-1.399,0.475
			c-10.356-42.723-44.699-76.179-87.904-85.242c0.186-0.42,0.413-0.88,0.683-1.362C323.805,94.417,358.392,128.172,368.887,171.257"
			/>
		<path style="fill:#9EA5A9;" d="M269.827,254.32c-2.823,0.716-5.686,1.187-8.559,1.442v-1.475c3.016-0.281,6.01-0.8,8.99-1.607
			L269.827,254.32z"/>
		<path style="fill:#9EA5A9;" d="M307.494,286.131c-10.582,6.262-22.395,10.652-34.982,12.722c-3.308-0.343-7.738-0.515-7.738-0.515
			c15.318-1.336,29.662-6.142,42.23-13.628L307.494,286.131z"/>
		<path style="fill:#9EA5A9;" d="M301.958,272.261c-3.695,2.319-7.577,4.367-11.616,6.113l0.226-0.478
			c0.245-0.511,0.471-1.022,0.672-1.534c3.498-1.592,6.869-3.414,10.093-5.448L301.958,272.261z"/>
		<path style="fill:#9EA5A9;" d="M329.927,288.306L329.927,288.306c0,0-5.631,3.228-8.26,4.437v0.004
			c-13.244,9.282-28.533,15.84-45.046,18.849c-0.124,0.544-0.343,1.081-0.562,1.599C296.281,309.66,314.725,300.878,329.927,288.306
			"/>
		<path style="fill:#9EA5A9;" d="M294.461,257.825c-1.234,0.807-2.49,1.574-3.776,2.301l0.606,1.351
			c1.329-0.752,2.633-1.541,3.907-2.374L294.461,257.825z"/>
		<path style="fill:#9EA5A9;" d="M284.932,263.05c-0.128,0.248-0.263,0.497-0.405,0.745c-0.285,0.489-0.588,0.968-0.913,1.431
			c-6.963,2.907-14.482,4.747-22.348,5.317v-1.475C269.647,268.447,277.618,266.355,284.932,263.05"/>
		<path style="fill:#9EA5A9;" d="M343.263,150.011c4.123,7.347,7.336,15.264,9.505,23.6c0.511,0.007,1.022,0.007,1.526,0.007
			c-2.257-8.811-5.667-17.166-10.064-24.893C343.916,149.164,343.595,149.587,343.263,150.011"/>
		<path style="fill:#9EA5A9;" d="M331.933,160.039c2.089,4.079,3.856,8.348,5.273,12.773c0.522,0.033,1.048,0.069,1.577,0.102
			c-1.483-4.74-3.359-9.308-5.598-13.66C332.218,159.886,332.043,159.974,331.933,160.039"/>
		<path style="fill:#9EA5A9;" d="M318.859,166.821c0.964,1.892,1.844,3.831,2.636,5.817c0.508-0.047,1.019-0.088,1.541-0.12
			c-0.854-2.176-1.811-4.298-2.866-6.365L318.859,166.821z"/>
		<path style="fill:#9EA5A9;" d="M305.736,173.508l1.311-0.668c0.606,1.187,1.172,2.399,1.694,3.633
			c-0.427,0.252-0.847,0.519-1.26,0.796C306.945,175.991,306.36,174.739,305.736,173.508"/>
		<path style="fill:#9EA5A9;" d="M356.135,182.449l-1.453,0.237c0.847,5.233,1.289,10.597,1.289,16.067
			c0,7.876-0.917,15.545-2.647,22.903l1.523-0.033c1.698-7.354,2.6-15.008,2.6-22.87
			C357.446,193.203,356.997,187.759,356.135,182.449"/>
		<path style="fill:#9EA5A9;" d="M342.409,191.493c-0.475,0.066-0.953,0.128-1.461,0.175c0.194,2.337,0.292,4.7,0.292,7.084
			c0,6.295-0.687,12.43-1.99,18.338l1.373,0.628c1.366-6.109,2.092-12.455,2.092-18.966c0-2.443-0.102-4.867-0.303-7.259H342.409z"
			/>
		<path style="fill:#9EA5A9;" d="M326.51,198.624c0.183,0,0.362,0,0.54-0.004l0.088-0.007c0.288-0.004,0.566-0.011,0.843-0.022
			c0.015,5.62-0.621,11.09-1.833,16.341l-1.515,0.018C325.871,209.706,326.521,204.24,326.51,198.624"/>
		<path style="fill:#9EA5A9;" d="M311.504,204.305c0.46,0,0.891,0.007,1.293,0.018c0.066,0,0.128,0,0.19,0
			c-0.329,3.374-0.949,6.664-1.84,9.841l-1.34-0.683c0.814-2.969,1.388-6.032,1.702-9.176H311.504z"/>
		<path style="fill:#3C934E;" d="M190.7,72.843c-4.831,4.188-8.457,8.844-10.856,13.646c-2.399,4.805-3.458,9.487-3.52,13.854
			C179.486,91.06,184.189,81.756,190.7,72.843"/>
		<path style="fill:#3C934E;" d="M203.403,68.822c-5.072,3.513-9.038,7.548-11.849,11.82c-2.812,4.276-4.338,8.556-4.878,12.642
			C190.732,84.889,196.231,76.611,203.403,68.822"/>
		<path style="fill:#3C934E;" d="M216.124,66.051c-5.229,2.874-9.447,6.303-12.594,10.049c-3.148,3.743-5.072,7.606-6.04,11.364
			C202.303,79.996,208.452,72.751,216.124,66.051"/>
		<path style="fill:#3C934E;" d="M178.145,78.25L178.145,78.25c-4.502,4.897-7.705,10.181-9.615,15.494
			c-1.906,5.317-2.439,10.363-1.968,14.964h0.004C168.702,98.601,172.455,88.292,178.145,78.25"/>
		<path style="fill:#3C934E;" d="M158.722,325.873c12.423,4.736,25.188,6.314,36.84,5.127c10.655-1.081,19.817-4.334,27.12-8.822
			c-0.449-0.099-0.895-0.201-1.344-0.303C201.54,327.56,180.113,329.203,158.722,325.873"/>
		<path style="fill:#3C934E;" d="M139.474,307.921c10.655,6.449,21.997,9.987,32.754,10.743c10.177,0.723,19.273-1.012,26.839-4.28
			c-0.237-0.11-0.478-0.215-0.716-0.325C179.272,316.411,159.108,314.574,139.474,307.921"/>
		<path style="fill:#3C934E;" d="M124.75,287.808L124.75,287.808c8.95,7.763,18.871,12.883,28.65,15.3
			c9.498,2.355,18.327,2.096,25.974,0.077c-0.11-0.08-0.219-0.157-0.332-0.237C160.995,302.202,142.387,297.269,124.75,287.808"/>
		<path style="fill:#3C934E;" d="M114.147,266.427c7.321,8.705,15.837,15.074,24.593,18.875c8.592,3.736,16.918,4.857,24.429,4.097
			c-0.058-0.058-0.117-0.12-0.175-0.183C146.314,285.671,129.561,278.101,114.147,266.427"/>
		<path style="fill:#3C934E;" d="M107.268,244.534c5.777,9.322,12.923,16.618,20.62,21.541c7.548,4.831,15.19,7.164,22.362,7.606
			c-0.047-0.069-0.095-0.142-0.142-0.212C135.049,267.51,120.345,257.826,107.268,244.534"/>
		<path style="fill:#3C934E;" d="M103.723,222.754c4.327,9.651,10.148,17.601,16.779,23.388c6.456,5.642,13.303,8.986,19.981,10.495
			c-0.047-0.099-0.095-0.197-0.142-0.296C127.049,248.41,114.463,237.126,103.723,222.754"/>
		<path style="fill:#3C934E;" d="M103.137,201.596c2.972,9.742,7.533,18.075,13.102,24.509c5.361,6.193,11.345,10.327,17.422,12.744
			c-0.044-0.142-0.088-0.281-0.131-0.424C122.078,228.971,111.616,216.567,103.137,201.596"/>
		<path style="fill:#3C934E;" d="M105.15,181.46c1.72,9.622,5.087,18.13,9.615,24.988c4.294,6.503,9.381,11.21,14.763,14.362
			c-0.029-0.19-0.059-0.383-0.088-0.573C119.855,209.683,111.471,196.606,105.15,181.46"/>
		<path style="fill:#3C934E;" d="M109.419,162.649c0.577,9.33,2.819,17.82,6.343,24.915c3.297,6.653,7.526,11.758,12.211,15.472
			c-0.004-0.204-0.007-0.409-0.011-0.617C119.691,190.762,113.607,177.222,109.419,162.649"/>
		<path style="fill:#3C934E;" d="M115.623,145.382c-0.464,8.899,0.738,17.206,3.301,24.374c2.388,6.697,5.817,12.072,9.83,16.206
			c0.022-0.204,0.044-0.413,0.069-0.621C122.52,173.466,118.018,159.587,115.623,145.382"/>
		<path style="fill:#3C934E;" d="M123.459,129.803c-1.395,8.355-1.15,16.352,0.5,23.45c1.552,6.664,4.232,12.2,7.61,16.644
			c0.047-0.197,0.095-0.394,0.142-0.588C127.472,157.66,124.218,143.485,123.459,129.803"/>
		<path style="fill:#3C934E;" d="M132.648,115.99c-2.22,7.734-2.845,15.311-2.041,22.212c0.76,6.558,2.739,12.171,5.507,16.823
			c0.055-0.146,0.11-0.292,0.164-0.438C133.473,142.956,131.906,129.153,132.648,115.99"/>
		<path style="fill:#3C934E;" d="M142.934,103.968c-2.943,7.055-4.345,14.128-4.327,20.737c0.015,6.372,1.322,11.981,3.498,16.746
			c0.047-0.095,0.099-0.19,0.146-0.281C140.787,129.696,140.783,116.533,142.934,103.968"/>
		<path style="fill:#3C934E;" d="M154.083,93.714c-3.56,6.346-5.653,12.857-6.35,19.09c-0.686,6.098-0.026,11.605,1.57,16.406
			c0.033-0.051,0.069-0.102,0.102-0.153C149.208,117.884,150.625,105.571,154.083,93.714"/>
		<path style="fill:#3C934E;" d="M165.883,85.17L165.883,85.17c-4.079,5.623-6.77,11.532-8.114,17.323
			c-1.329,5.744-1.282,11.068-0.259,15.808c0.018-0.018,0.033-0.037,0.047-0.055C158.565,107.525,161.234,96.183,165.883,85.17"/>
		<path style="fill:#3C934E;" d="M243.927,327.506c-19.039,8.077-39.674,12.704-61.028,13.116
			c14.237,2.571,28.409,1.797,40.854-1.61c7.771-2.125,14.588-5.163,20.357-8.771c-0.12-0.314-0.183-0.654-0.183-1.008V327.506z"/>
		<path style="fill:#056D31;" d="M184.662,86.467c2.516-4.685,4.583-9.209,6.04-13.624c-6.514,8.913-11.214,18.218-14.38,27.5
			C179.316,95.753,182.146,91.152,184.662,86.467"/>
		<path style="fill:#056D31;" d="M196.179,81.051c2.914-4.163,5.371-8.22,7.223-12.229c-7.168,7.792-12.671,16.067-16.728,24.462
			C190.048,89.263,193.261,85.214,196.179,81.051"/>
		<path style="fill:#056D31;" d="M207.929,76.871c3.235-3.637,6.014-7.226,8.194-10.82c-7.672,6.697-13.821,13.942-18.634,21.413
			C201.166,84.01,204.69,80.512,207.929,76.871"/>
		<path style="fill:#056D31;" d="M243.927,325.547c-10.013,2.476-19.496,4.623-28.628,6.726c-11.948,2.75-22.687,5.306-32.4,8.351
			c21.354-0.416,41.989-5.043,61.028-13.12V325.547z"/>
		<path style="fill:#056D31;" d="M244.429,322.848c-61.149-4.616-104.106-48.379-112.158-104.628
			c-8.194-58.491,21.741-110.222,69.792-132.026c5.934-2.79,12.532-4.919,14.139-5.463l-0.077-0.234c0,0-1.318,0.405-3.794,1.168
			c-17.842,5.748-33.215,15.128-45.765,27.04c2.534-5.156,4.897-10.294,6.938-15.486c2.041-5.189,3.644-10.17,4.641-14.971
			c-5.693,10.042-9.447,20.35-11.583,30.458v0.004c-3.155,2.994-6.131,6.146-8.924,9.439c1.957-5.598,3.746-11.166,5.214-16.746
			c1.486-5.678,2.56-11.072,3.031-16.231c-4.652,11.013-7.318,22.355-8.326,33.076c-0.015,0.018-0.033,0.037-0.047,0.055
			c-2.837,3.359-5.488,6.869-7.939,10.506c1.311-5.952,2.461-11.846,3.29-17.728c0.865-6.116,1.333-11.904,1.22-17.367
			c-3.458,11.857-4.875,24.17-4.678,35.343c-0.033,0.051-0.066,0.102-0.099,0.153c-2.479,3.71-4.754,7.551-6.817,11.506
			c0.613-6.204,1.074-12.339,1.231-18.422c0.168-6.503-0.029-12.612-0.785-18.327c-2.151,12.569-2.147,25.729-0.683,37.202
			c-0.047,0.095-0.099,0.186-0.146,0.281c-2.078,4.042-3.933,8.201-5.565,12.455c-0.117-6.365-0.372-12.649-0.92-18.857
			c-0.599-6.806-1.523-13.175-2.972-19.057c-0.741,13.164,0.825,26.967,3.63,38.597c-0.055,0.146-0.11,0.288-0.164,0.434
			c-1.632,4.371-3.023,8.84-4.174,13.383c-0.876-6.456-1.881-12.821-3.155-19.087c-1.431-7.018-3.137-13.547-5.324-19.518
			c0.76,13.682,4.009,27.858,8.253,39.506c-0.047,0.197-0.095,0.391-0.142,0.588c-1.132,4.703-2.005,9.487-2.611,14.321
			c-1.68-6.507-3.469-12.912-5.514-19.193c-2.319-7.117-4.857-13.697-7.822-19.642c2.395,14.205,6.898,28.084,13.2,39.959
			c-0.026,0.208-0.047,0.413-0.069,0.621c-0.562,5.046-0.833,10.144-0.803,15.271c-2.56-6.522-5.207-12.941-8.092-19.207
			c-3.261-7.073-6.668-13.576-10.44-19.375c4.188,14.573,10.272,28.113,18.543,39.769c0.004,0.204,0.007,0.409,0.011,0.617
			c0.102,5.379,0.54,10.779,1.318,16.18c-3.557-6.496-7.164-12.886-10.995-19.087c-4.243-6.876-8.556-13.157-13.146-18.67
			c6.317,15.147,14.705,28.223,24.29,38.776c0.029,0.19,0.058,0.383,0.088,0.573c0.884,5.642,2.14,11.272,3.779,16.856
			c-4.689-6.335-9.374-12.58-14.259-18.608c-5.262-6.489-10.495-12.386-15.91-17.462c8.475,14.975,18.941,27.376,30.392,36.833
			c0.04,0.139,0.084,0.278,0.128,0.42c1.738,5.718,3.878,11.382,6.441,16.958c-5.894-5.901-11.714-11.747-17.692-17.352
			c-6.299-5.897-12.455-11.229-18.685-15.702c10.743,14.373,23.326,25.66,36.618,33.587c0.047,0.102,0.095,0.201,0.142,0.299
			c2.739,5.813,5.872,11.298,9.359,16.443c-7.124-5.16-14.091-10.301-21.15-15.205c-7.336-5.101-14.409-9.658-21.424-13.343
			c13.073,13.295,27.781,22.979,42.84,28.935c0.047,0.073,0.095,0.142,0.142,0.212c3.754,5.466,7.909,10.538,12.412,15.198
			c-8.318-4.072-16.373-8.205-24.44-12.105c-8.369-4.05-16.322-7.628-24.075-10.345c15.41,11.674,32.167,19.244,48.847,22.789
			c0.059,0.062,0.117,0.124,0.175,0.183c4.729,4.831,9.834,9.209,15.267,13.116c-9.311-2.647-18.261-5.43-27.113-8.026
			c-9.37-2.746-18.159-5.134-26.576-6.682c17.637,9.461,36.245,14.394,54.291,15.139c0.113,0.08,0.223,0.157,0.336,0.237
			c5.594,3.94,11.528,7.38,17.736,10.301c-9.961-0.971-19.474-2.158-28.789-3.224c-10.316-1.183-19.864-2.14-28.847-2.341
			c19.634,6.653,39.798,8.494,58.878,6.138c0.237,0.11,0.475,0.219,0.716,0.325c6.405,2.874,13.094,5.192,20.003,6.938
			c-10.286,0.803-20.051,1.318-29.527,1.87c-11.188,0.65-21.394,1.344-30.823,2.68c21.391,3.33,42.814,1.691,62.617-3.998
			c0.446,0.106,0.895,0.204,1.344,0.303c6.898,1.526,14,2.483,21.241,2.845h0.004v-0.548
			C243.928,323.874,244.111,323.312,244.429,322.848"/>
		<path style="fill:#3C934E;" d="M321.302,72.843c4.831,4.188,8.457,8.844,10.856,13.646c2.399,4.805,3.458,9.487,3.52,13.854
			C332.515,91.06,327.812,81.756,321.302,72.843"/>
		<path style="fill:#3C934E;" d="M308.599,68.822c5.072,3.513,9.038,7.548,11.849,11.82c2.812,4.276,4.338,8.556,4.878,12.642
			C321.269,84.889,315.77,76.611,308.599,68.822"/>
		<path style="fill:#3C934E;" d="M295.878,66.051c5.229,2.874,9.447,6.303,12.594,10.049c3.148,3.743,5.072,7.606,6.04,11.364
			C309.702,79.996,303.549,72.751,295.878,66.051"/>
		<path style="fill:#3C934E;" d="M333.857,78.25L333.857,78.25c4.502,4.897,7.705,10.181,9.615,15.494
			c1.906,5.317,2.439,10.363,1.968,14.964h-0.004C343.304,98.601,339.55,88.292,333.857,78.25"/>
		<path style="fill:#3C934E;" d="M353.279,325.873c-12.423,4.736-25.188,6.314-36.841,5.127c-10.655-1.081-19.817-4.334-27.12-8.822
			c0.449-0.099,0.895-0.201,1.344-0.303C310.461,327.56,331.888,329.203,353.279,325.873"/>
		<path style="fill:#3C934E;" d="M372.528,307.921c-10.655,6.449-21.997,9.987-32.754,10.743
			c-10.177,0.723-19.273-1.012-26.839-4.28c0.237-0.11,0.478-0.215,0.716-0.325C332.729,316.411,352.893,314.574,372.528,307.921"/>
		<path style="fill:#3C934E;" d="M387.251,287.808L387.251,287.808c-8.95,7.763-18.871,12.883-28.65,15.3
			c-9.498,2.355-18.327,2.096-25.974,0.077c0.11-0.08,0.219-0.157,0.332-0.237C351.006,302.202,369.614,297.269,387.251,287.808"/>
		<path style="fill:#3C934E;" d="M397.854,266.427c-7.321,8.705-15.837,15.074-24.59,18.875c-8.596,3.736-16.921,4.857-24.433,4.097
			c0.058-0.058,0.117-0.12,0.175-0.183C365.687,285.671,382.444,278.101,397.854,266.427"/>
		<path style="fill:#3C934E;" d="M404.733,244.534c-5.777,9.322-12.923,16.618-20.62,21.541c-7.548,4.831-15.19,7.164-22.362,7.606
			c0.047-0.069,0.095-0.142,0.142-0.212C376.952,267.51,391.66,257.826,404.733,244.534"/>
		<path style="fill:#3C934E;" d="M408.278,222.754c-4.327,9.651-10.148,17.601-16.779,23.388
			c-6.456,5.642-13.303,8.986-19.981,10.495c0.047-0.099,0.095-0.197,0.142-0.296C384.952,248.41,397.539,237.126,408.278,222.754"
			/>
		<path style="fill:#3C934E;" d="M408.864,201.596c-2.972,9.742-7.533,18.075-13.102,24.509
			c-5.361,6.193-11.345,10.327-17.422,12.744c0.044-0.142,0.088-0.281,0.131-0.424C389.923,228.971,400.389,216.567,408.864,201.596
			"/>
		<path style="fill:#3C934E;" d="M406.852,181.46c-1.72,9.622-5.087,18.13-9.615,24.988c-4.294,6.503-9.381,11.21-14.763,14.362
			c0.029-0.19,0.059-0.383,0.088-0.573C392.147,209.683,400.531,196.606,406.852,181.46"/>
		<path style="fill:#3C934E;" d="M402.583,162.649c-0.577,9.33-2.819,17.82-6.339,24.915c-3.301,6.653-7.529,11.758-12.214,15.472
			c0.004-0.204,0.007-0.409,0.011-0.617C392.311,190.762,398.394,177.222,402.583,162.649"/>
		<path style="fill:#3C934E;" d="M396.38,145.382c0.464,8.899-0.738,17.206-3.301,24.374c-2.388,6.697-5.817,12.072-9.83,16.206
			c-0.026-0.204-0.047-0.413-0.069-0.621C389.482,173.466,393.984,159.587,396.38,145.382"/>
		<path style="fill:#3C934E;" d="M388.543,129.803c1.395,8.355,1.15,16.352-0.5,23.45c-1.552,6.664-4.232,12.2-7.61,16.644
			c-0.047-0.197-0.095-0.394-0.142-0.588C384.53,157.66,387.784,143.485,388.543,129.803"/>
		<path style="fill:#3C934E;" d="M379.354,115.99c2.22,7.734,2.845,15.311,2.045,22.212c-0.763,6.558-2.742,12.171-5.51,16.823
			c-0.055-0.146-0.11-0.292-0.164-0.438C378.529,142.956,380.095,129.153,379.354,115.99"/>
		<path style="fill:#3C934E;" d="M369.068,103.968c2.943,7.055,4.345,14.128,4.327,20.737c-0.015,6.372-1.322,11.981-3.498,16.746
			c-0.047-0.095-0.099-0.19-0.146-0.281C371.215,129.696,371.218,116.533,369.068,103.968"/>
		<path style="fill:#3C934E;" d="M357.919,93.714c3.56,6.346,5.652,12.857,6.35,19.09c0.686,6.098,0.022,11.605-1.57,16.406
			c-0.033-0.051-0.069-0.102-0.102-0.153C362.794,117.884,361.377,105.571,357.919,93.714"/>
		<path style="fill:#3C934E;" d="M346.119,85.17L346.119,85.17c4.079,5.623,6.77,11.532,8.114,17.323
			c1.329,5.744,1.282,11.068,0.259,15.808c-0.018-0.018-0.033-0.037-0.047-0.055C353.436,107.525,350.767,96.183,346.119,85.17"/>
		<path style="fill:#3C934E;" d="M268.075,327.506c19.039,8.077,39.67,12.704,61.028,13.116c-14.237,2.571-28.409,1.797-40.854-1.61
			c-7.771-2.125-14.588-5.163-20.357-8.771c0.117-0.314,0.183-0.654,0.183-1.008V327.506z"/>
		<path style="fill:#056D31;" d="M327.341,86.467c-2.516-4.685-4.583-9.209-6.04-13.624c6.511,8.913,11.214,18.218,14.38,27.5
			C332.686,95.753,329.856,91.152,327.341,86.467"/>
		<path style="fill:#056D31;" d="M315.824,81.051c-2.914-4.163-5.371-8.22-7.226-12.229c7.172,7.792,12.674,16.067,16.731,24.462
			C321.955,89.263,318.738,85.214,315.824,81.051"/>
		<path style="fill:#056D31;" d="M304.073,76.871c-3.239-3.637-6.014-7.226-8.194-10.82c7.672,6.697,13.821,13.942,18.634,21.413
			C310.835,84.01,307.312,80.512,304.073,76.871"/>
		<path style="fill:#056D31;" d="M268.075,325.547c10.012,2.476,19.496,4.623,28.628,6.726c11.948,2.75,22.683,5.306,32.4,8.351
			c-21.358-0.416-41.989-5.043-61.028-13.12V325.547z"/>
		<path style="fill:#056D31;" d="M267.574,322.848c61.149-4.616,104.106-48.379,112.157-104.628
			c8.194-58.491-21.741-110.222-69.792-132.026c-5.934-2.79-12.532-4.919-14.139-5.463l0.077-0.234c0,0,1.318,0.405,3.794,1.168
			c17.842,5.748,33.215,15.128,45.765,27.04c-2.534-5.156-4.897-10.294-6.938-15.486c-2.041-5.189-3.644-10.17-4.641-14.971
			c5.693,10.042,9.447,20.35,11.579,30.458l0.004,0.004c3.155,2.994,6.131,6.146,8.924,9.439
			c-1.957-5.598-3.746-11.166-5.214-16.746c-1.49-5.678-2.556-11.072-3.031-16.231c4.652,11.013,7.318,22.355,8.326,33.076
			c0.015,0.018,0.029,0.037,0.047,0.055c2.837,3.359,5.485,6.869,7.935,10.506c-1.307-5.952-2.458-11.846-3.286-17.728
			c-0.865-6.116-1.333-11.904-1.22-17.367c3.458,11.857,4.871,24.17,4.678,35.343c0.033,0.051,0.066,0.102,0.099,0.153
			c2.479,3.71,4.754,7.551,6.817,11.506c-0.613-6.204-1.074-12.339-1.231-18.422c-0.168-6.503,0.029-12.612,0.785-18.327
			c2.151,12.569,2.147,25.729,0.683,37.202c0.047,0.095,0.099,0.186,0.146,0.281c2.078,4.042,3.933,8.201,5.565,12.455
			c0.117-6.365,0.372-12.649,0.917-18.857c0.602-6.806,1.526-13.175,2.976-19.057c0.741,13.164-0.825,26.967-3.63,38.597
			c0.055,0.146,0.11,0.288,0.164,0.434c1.632,4.371,3.023,8.84,4.174,13.383c0.876-6.456,1.88-12.821,3.155-19.087
			c1.431-7.018,3.137-13.547,5.324-19.518c-0.76,13.682-4.013,27.858-8.253,39.506c0.047,0.197,0.095,0.391,0.142,0.588
			c1.132,4.703,2.005,9.487,2.607,14.321c1.683-6.507,3.473-12.912,5.518-19.193c2.319-7.117,4.857-13.697,7.822-19.642
			c-2.395,14.205-6.898,28.084-13.2,39.959c0.026,0.208,0.047,0.413,0.069,0.621c0.562,5.046,0.833,10.144,0.803,15.271
			c2.56-6.522,5.207-12.941,8.092-19.207c3.261-7.073,6.668-13.576,10.44-19.375c-4.188,14.573-10.272,28.113-18.543,39.769
			c-0.004,0.204-0.007,0.409-0.011,0.617c-0.106,5.379-0.54,10.779-1.318,16.18c3.557-6.496,7.161-12.886,10.995-19.087
			c4.243-6.876,8.556-13.157,13.146-18.67c-6.321,15.147-14.705,28.223-24.29,38.776c-0.029,0.19-0.058,0.383-0.088,0.573
			c-0.884,5.642-2.14,11.272-3.779,16.856c4.689-6.335,9.373-12.58,14.259-18.608c5.262-6.489,10.495-12.386,15.91-17.462
			c-8.475,14.975-18.941,27.376-30.392,36.833c-0.044,0.139-0.084,0.278-0.128,0.42c-1.738,5.718-3.882,11.382-6.441,16.958
			c5.894-5.901,11.714-11.747,17.692-17.352c6.299-5.897,12.452-11.229,18.685-15.702c-10.743,14.373-23.326,25.66-36.618,33.587
			c-0.047,0.102-0.095,0.201-0.142,0.299c-2.739,5.813-5.875,11.298-9.363,16.443c7.128-5.16,14.095-10.301,21.15-15.205
			c7.34-5.101,14.413-9.658,21.427-13.343c-13.073,13.295-27.781,22.979-42.84,28.935c-0.047,0.073-0.095,0.142-0.142,0.212
			c-3.754,5.466-7.906,10.538-12.412,15.198c8.318-4.072,16.374-8.205,24.44-12.105c8.369-4.05,16.322-7.628,24.075-10.345
			c-15.41,11.674-32.167,19.244-48.847,22.789c-0.059,0.062-0.117,0.124-0.175,0.183c-4.729,4.831-9.834,9.209-15.267,13.116
			c9.311-2.647,18.258-5.43,27.113-8.026c9.37-2.746,18.159-5.134,26.576-6.682c-17.637,9.461-36.249,14.394-54.295,15.139
			c-0.11,0.08-0.223,0.157-0.332,0.237c-5.594,3.94-11.528,7.38-17.736,10.301c9.961-0.971,19.474-2.158,28.785-3.224
			c10.319-1.183,19.868-2.14,28.851-2.341c-19.634,6.653-39.798,8.494-58.878,6.138c-0.237,0.11-0.475,0.219-0.716,0.325
			c-6.405,2.874-13.094,5.192-20.003,6.938c10.283,0.803,20.051,1.318,29.527,1.87c11.188,0.65,21.394,1.344,30.823,2.68
			c-21.391,3.33-42.818,1.691-62.617-3.998c-0.446,0.106-0.895,0.204-1.344,0.303c-6.898,1.526-14,2.483-21.245,2.845v-0.548
			C268.074,323.874,267.891,323.312,267.574,322.848"/>
		<path style="fill:#951B15;" d="M256.001,309.622L256.001,309.622h10.275c1.559-2.311,2.896-4.773,3.984-7.354l0.723-1.716
			l0.026-0.066h-15.008h-15.008l0.749,1.782c0.851,2.012,1.851,3.951,2.991,5.806c0.321,0.522,0.654,1.041,0.993,1.548H256.001z"/>
		<path style="fill:#CB3438;" d="M263.592,332.119h1.596c1.241,0,2.297-0.781,2.706-1.877c0.117-0.314,0.183-0.654,0.183-1.008
			v-1.727v-1.961v-0.526v-0.548c0-0.599-0.186-1.158-0.504-1.625c-0.31-0.456-0.749-0.818-1.271-1.037l7.146-8.194
			c2.063-2.363,2.308-5.81,0.599-8.442l-3.038-4.685l-0.026,0.062l-0.723,1.716c-1.088,2.582-2.425,5.043-3.984,7.354
			c-1.38,2.045-2.929,3.969-4.645,5.755L256,321.237l-5.631-5.861c-1.713-1.786-3.265-3.71-4.641-5.755
			c-0.343-0.508-0.676-1.026-0.997-1.548c-1.139-1.851-2.14-3.794-2.991-5.806l-0.749-1.778l-3.038,4.685
			c-1.709,2.633-1.461,6.08,0.599,8.442l7.146,8.194c-0.522,0.219-0.96,0.581-1.271,1.037c-0.318,0.467-0.5,1.026-0.5,1.625v0.548
			v0.526v1.961v1.727c0,0.354,0.062,0.694,0.179,1.008c0.409,1.095,1.468,1.877,2.706,1.877h1.599
			c-4.55,4.857-10.575,9.224-18.466,12.978h11.185c0,0,8.541-6.956,11.553-12.978h0.007H256h3.312h0.004
			c3.013,6.021,11.553,12.978,11.553,12.978h11.188C274.163,341.343,268.138,336.975,263.592,332.119"/>
		<path style="fill:#951B15;" d="M241.137,345.097l-0.033,10.962c6.876-7.639,12.295-15.377,14.895-23.308
			c2.604,7.931,8.023,15.669,14.898,23.308l-0.033-10.962c0,0-8.541-6.956-11.554-12.978h-6.62
			C249.678,338.141,241.137,345.097,241.137,345.097"/>
		<path style="fill:#FFFFFF;" d="M256.001,236.653c-20.763,0-37.596-16.83-37.596-37.596c0-20.763,16.834-37.593,37.596-37.593
			c20.763,0,37.596,16.83,37.596,37.593C293.597,219.823,276.763,236.653,256.001,236.653"/>
		<path style="fill:#056D31;" d="M283.955,201.667c-8.154,0-19.423,5.78-25.868,9.527c-1.249-13.759-0.778-22.669-0.387-27.284
			c0-0.029,0.036-0.044,0.062-0.029c3.987,2.516,2.866,9.541,2.034,11.55c-0.018,0.04,0.044,0.069,0.069,0.036
			c4.97-5.883,2.545-12.375,1.523-14.022c-0.022-0.036,0.029-0.073,0.062-0.047c4.444,3.619,4.25,8.413,4.009,11.101
			c-0.004,0.044,0.055,0.058,0.077,0.018c1.804-3.557,2.355-9.574-3.184-14.456c-0.033-0.026-0.004-0.077,0.033-0.069
			c4.951,1.198,6.956,5.894,6.996,9.399c0,0.058,0.004,0.117,0.004,0.175c0,0.047,0.066,0.051,0.077,0.007
			c0.712-2.622,0.555-4.751-0.08-6.456c-1.435-3.856-5.32-5.543-7.208-5.777c-0.047-0.007-0.036-0.073,0.007-0.077
			c3.688-0.347,5.923,0.803,7.201,1.932c0.789,0.694,1.216,1.384,1.384,1.702c0.022,0.04,0.08,0.015,0.077-0.026
			c-0.139-1.413-0.679-2.585-1.461-3.516c-2.187-2.607-6.292-3.338-8.946-2.22c-0.037,0.015-0.069-0.026-0.047-0.058
			c1.72-2.468,5.149-2.728,6.967-1.862c0.04,0.018,0.073-0.029,0.047-0.062c-2.724-3.122-7.197-3.191-9.585,0.424
			c-0.015,0.026-0.051,0.026-0.066,0c-0.259-0.46-0.507-0.975-0.741-1.515c-0.511-1.179-0.741-2.505-0.957-3.827
			c-0.011-0.055-0.091-0.055-0.102,0c-0.219,1.322-0.446,2.647-0.957,3.827c-0.237,0.54-0.486,1.055-0.745,1.515
			c-0.015,0.026-0.047,0.026-0.066,0c-2.384-3.615-6.861-3.546-9.582-0.424c-0.029,0.033,0.007,0.08,0.044,0.062
			c1.818-0.865,5.251-0.606,6.967,1.862c0.022,0.033-0.011,0.073-0.044,0.058c-2.655-1.117-6.759-0.387-8.946,2.22
			c-0.785,0.931-1.322,2.103-1.461,3.516c-0.004,0.04,0.055,0.066,0.073,0.026c0.172-0.318,0.599-1.008,1.388-1.702
			c1.278-1.128,3.513-2.279,7.197-1.932c0.047,0.004,0.055,0.069,0.011,0.077c-1.892,0.234-5.773,1.921-7.208,5.777
			c-0.635,1.705-0.792,3.834-0.08,6.456c0.011,0.044,0.077,0.04,0.073-0.007c0-0.058,0.004-0.117,0.007-0.175
			c0.036-3.506,2.041-8.201,6.993-9.399c0.04-0.007,0.066,0.044,0.037,0.069c-5.543,4.882-4.992,10.9-3.184,14.456
			c0.018,0.04,0.077,0.026,0.073-0.018c-0.237-2.688-0.435-7.482,4.009-11.101c0.033-0.026,0.088,0.011,0.066,0.047
			c-1.022,1.647-3.451,8.139,1.519,14.022c0.029,0.033,0.088,0.004,0.073-0.036c-0.836-2.008-1.957-9.034,2.034-11.55
			c0.026-0.015,0.059,0,0.062,0.029c0.387,4.616,0.858,13.525-0.391,27.284c-6.445-3.747-17.71-9.527-25.864-9.527
			c-2.509,0-4.605,0.668-4.469,0.69c10.783,1.702,23.556,9.202,28.928,12.609c-3.465,2.165-14.566,9.03-15.895,9.03
			c-0.676,0-0.77-0.814-1.344-0.814c-0.515,0-0.515,0.376-0.515,0.529c0,2.308,3.148,3.805,5.689,2.611l15.559-8.994l15.556,8.994
			c2.542,1.194,5.689-0.303,5.689-2.611c0-0.153,0-0.529-0.515-0.529c-0.57,0-0.664,0.814-1.344,0.814
			c-1.329,0-12.43-6.865-15.895-9.03c5.371-3.407,18.145-10.907,28.928-12.609C288.559,202.336,286.463,201.667,283.955,201.667"/>
		<path style="fill:#69767B;" d="M318.229,193.539c5.2,0.431,16.187,1.782,19.55-0.635c0.186,0.953-3.374,4.437-14.354,3.71
			c-9.242-0.613-21.274-1.961-24.611,0.818C299.687,193.473,307.479,192.648,318.229,193.539"/>
		<polygon style="fill:#69767B;" points="149.728,233.433 150.911,235.755 179.747,221.05 		"/>
		<polygon style="fill:#69767B;" points="353.324,221.656 349.431,221.74 355.091,224.321 356.764,221.583 354.843,221.623 		"/>
		<path style="fill:#69767B;" d="M348.571,237.178l-26.992-14.051c-3.71-1.932-7.927-2.662-12.068-2.089l12.638,17.761l19.85,11.218
			l-1.231,2.961l9.713,4.952l2.907-5.704C356.185,246.738,354.034,240.023,348.571,237.178"/>
		<path style="fill:#69767B;" d="M289.647,260.704c-0.5-1.026-1.092-2.052-1.782-3.078c1.227,10.005-5.207,14.577-5.207,14.577
			l4.239-2.936c0,0-3.487,9.658-11.247,13.339c-7.76,3.677-19.649,7.606-19.649,8.851c0-1.26-12.521-5.174-20.281-8.851
			c-7.76-3.681-11.243-13.339-11.243-13.339l6.357,2.655l2.29-0.431c-2.483-1.548-4.944-4.097-6.675-7.102
			c-0.394-0.686-0.752-1.399-1.063-2.125c-0.635-1.49-1.077-3.056-1.249-4.637c-0.694,1.026-1.285,2.052-1.786,3.078
			c-0.219,0.449-0.416,0.902-0.599,1.351c-2.016,5.01-1.764,10.071,0.749,15.329l1.731-2.421
			c4.718,13.781,24.604,13.102,31.765,23.008h0.004c7.161-9.907,27.051-9.228,31.769-23.008l1.731,2.417
			c2.509-5.255,2.764-10.316,0.745-15.326C290.064,261.606,289.866,261.153,289.647,260.704"/>
		<path style="fill:#69767B;" d="M345.825,143.744"/>
		<path style="fill:#69767B;" d="M193.773,193.539c-5.2,0.431-16.191,1.782-19.55-0.635c-0.186,0.953,3.374,4.437,14.354,3.71
			c9.242-0.613,21.274-1.961,24.611,0.818C212.312,193.473,204.523,192.648,193.773,193.539"/>
		<path style="fill:#69767B;" d="M205.537,189.726c-0.34-0.551-0.712-1.048-1.11-1.493c-5.397-6.065-15.789-2.64-26.664-1.65
			c-9.403,0.854-13.098,0.106-16.107-1.194c-1.986-0.858-2.136-1.198-2.136-1.198s-0.026,0.062-0.026,0.157
			c0,1.388,4.714,6.405,18.521,5.419C190.478,188.879,200.315,186.513,205.537,189.726"/>
		<path style="fill:#69767B;" d="M306.465,189.726c0.34-0.551,0.712-1.048,1.106-1.493c5.401-6.065,15.793-2.64,26.667-1.65
			c9.403,0.854,13.098,0.106,16.107-1.194c1.986-0.858,2.136-1.198,2.136-1.198s0.026,0.062,0.026,0.157
			c0,1.388-4.714,6.405-18.524,5.419C321.524,188.879,311.683,186.513,306.465,189.726"/>
		<polygon style="fill:#BEC6CB;" points="336.583,246.953 341.998,250.017 340.768,252.978 		"/>
		<path style="fill:#BEC6CB;" d="M211.144,163.211l-11.999-6.113l-1.329-0.679l-2.476-1.26l0.329-0.599
			c0.416-0.811,0.113-1.808-0.687-2.253l-7.515-4.185l-1.296-0.723l-11.659-6.5l-1.293-0.719l-7.975-4.444l-1.716,3.363
			l-3.133,6.149l-1.65,3.243l1.975,0.99l0.11-0.215c1.665-3.268,5.66-4.575,8.935-2.921l23.936,12.083l-1.534,3.009l1.242-0.296
			c2.417-0.562,4.955-0.259,7.168,0.858l23.414,11.794c0.891-0.909,1.822-1.782,2.801-2.611l-14.303-7.289L211.144,163.211z"/>
		<path style="fill:#BEC6CB;" d="M282.657,272.205c0,0,6.434-4.572,5.207-14.577c-0.172,1.581-0.613,3.144-1.253,4.637
			c-0.307,0.727-0.665,1.435-1.059,2.122c-1.731,3.005-4.192,5.554-6.679,7.106L282.657,272.205z"/>
		<path style="fill:#BEC6CB;" d="M268.524,281.447c-0.778,0-1.53-0.077-2.246-0.23l-0.004,0.004
			c-3.889,1.183-6.456,2.359-8.055,3.243c-1.596,0.88-2.216,1.468-2.216,1.468v-48.467c-1.377,0-2.739-0.058-4.082-0.172v35.227
			c0.007,2.837-0.759,5.068-2.282,6.631c-4.787,4.908-16.311,1.661-20.295-6.945l1.493-0.281l-6.361-2.655
			c0,0,3.487,9.658,11.247,13.335c7.76,3.681,20.281,7.595,20.281,8.855c0-1.245,11.886-5.174,19.649-8.855
			c7.756-3.677,11.243-13.335,11.243-13.335l-4.236,2.936C279.942,278.073,273.724,281.447,268.524,281.447"/>
		<polygon style="fill:#BEC6CB;" points="249.719,159.984 249.719,140.66 249.719,159.98 		"/>
		<path style="fill:#BEC6CB;" d="M260.701,110.99c-0.935,0.226-2.403,0.46-4.7,0.606c-1.431,0.088-2.947,0.106-5.09,0.106
			c0,0,0.037,0.329,0.449,0.738c0.139,0.135,0.318,0.281,0.551,0.424c0.577,0.354,1.483,0.705,2.903,0.917
			c0.362,0.055,0.752,0.099,1.187,0.131v46.817c-3.885-0.004-7.668,0.467-11.28,1.362v-16.976c0-1.059,0.599-2.027,1.548-2.501
			l2.392-1.355c-1.176,0.676-1.808,2.016-1.577,3.356l0.135,0.792l2.501,14.577v-45.644c0-4.356,0.792-8.683,2.341-12.759
			l3.94-10.966v16.392C256.001,109.383,256.261,110.778,260.701,110.99"/>
		<polygon style="fill:#BEC6CB;" points="185.673,232.675 156.829,247.369 158.012,249.692 		"/>
		<path style="fill:#BEC6CB;" d="M345.825,143.745"/>
		<path style="fill:#BEC6CB;" d="M352.482,184.191"/>
		<path style="fill:#BEC6CB;" d="M338.286,280.683"/>
		<path style="fill:#BEC6CB;" d="M159.52,184.191"/>
		<path style="fill:#BEC6CB;" d="M186.728,199.503c-0.011-0.018-0.026-0.036-0.037-0.051
			C186.702,199.467,186.713,199.485,186.728,199.503"/>
		<path style="fill:#BEC6CB;" d="M213.189,197.431L213.189,197.431c-5.269-1.541-23.063,2.527-26.499,2.019
			c0.011,0.015,0.022,0.033,0.033,0.047c0.792,0.957,7.212,0.869,14.719,0.643c2.399-0.073,7.358-0.573,12.028,1.055
			C213.284,198.074,213.193,197.453,213.189,197.431"/>
		<path style="fill:#BEC6CB;" d="M213.113,197.128c-0.639-2.337-2.815-5.218-6.682-7.029c-0.303-0.142-0.599-0.267-0.895-0.372
			c-4.232-1.523-8.42,0.325-22.326,2.669c-2.589,0.438-7.767,0.785-8.975,0.511c-0.004,0-0.007,0-0.015-0.004
			c3.363,2.421,14.351,1.066,19.554,0.635c10.746-0.891,18.539-0.066,19.415,3.893C213.168,197.329,213.142,197.23,213.113,197.128"
			/>
		<path style="fill:#BEC6CB;" d="M205.165,189.139c-2.034-3.151-4.028-5.046-6.164-6.127c-4.466-2.257-9.545-0.935-16.87-0.044
			c-9.914,1.209-19.131,2.552-22.61,1.223c0,0,0.15,0.34,2.136,1.198c3.012,1.3,6.704,2.049,16.107,1.194
			c10.874-0.99,21.267-4.415,26.664,1.651c0.398,0.445,0.77,0.942,1.11,1.493C205.413,189.526,205.289,189.333,205.165,189.139"/>
		<path style="fill:#BEC6CB;" d="M325.273,199.503c0.011-0.018,0.026-0.036,0.036-0.051
			C325.299,199.467,325.288,199.485,325.273,199.503"/>
		<path style="fill:#BEC6CB;" d="M298.813,197.431L298.813,197.431c5.269-1.541,23.063,2.527,26.499,2.019
			c-0.011,0.015-0.022,0.033-0.037,0.047c-0.789,0.957-7.208,0.869-14.719,0.643c-2.395-0.073-7.354-0.573-12.025,1.055
			C298.718,198.074,298.809,197.453,298.813,197.431"/>
		<path style="fill:#BEC6CB;" d="M298.888,197.128c0.639-2.337,2.815-5.218,6.686-7.029c0.299-0.142,0.595-0.267,0.891-0.372
			c4.236-1.523,8.421,0.325,22.326,2.669c2.589,0.438,7.767,0.785,8.975,0.511c0.004,0,0.011,0,0.015-0.004
			c-3.363,2.421-14.351,1.066-19.55,0.635c-10.75-0.891-18.543-0.066-19.419,3.893C298.833,197.329,298.859,197.23,298.888,197.128"
			/>
		<path style="fill:#BEC6CB;" d="M306.837,189.139c2.034-3.151,4.031-5.046,6.164-6.127c4.47-2.257,9.545-0.935,16.87-0.044
			c9.914,1.209,19.131,2.552,22.61,1.223c0,0-0.15,0.34-2.136,1.198c-3.009,1.3-6.701,2.049-16.103,1.194
			c-10.878-0.99-21.27-4.415-26.671,1.651c-0.394,0.445-0.763,0.942-1.106,1.493C306.589,189.526,306.713,189.333,306.837,189.139"
			/>
		<path style="fill:#BEC6CB;" d="M173.716,280.683"/>
		<path style="fill:#BEC6CB;" d="M200.006,210.718l-2.699,1.377l-10.235,1.545l-1.461,0.223l-13.131,1.983l-1.457,0.219
			l-1.274,0.194c-3.925,0.811-7.785,1.895-11.55,3.243c-0.467,0.168-0.931,0.34-1.399,0.515c-2.94,1.11-5.817,2.381-8.625,3.809
			l-2.655,1.355l4.207,8.256l30.019-12.386l-28.836,14.708l-2.965,1.486l-1.329,0.668c1.479,4.119,3.184,8.132,5.105,12.025
			c-1.676-3.286-0.369-7.31,2.918-8.983L215.2,210.13c-0.646-1.932-1.125-3.925-1.424-5.97c-0.183-0.062-0.365-0.121-0.548-0.179
			l-11.864,6.043L200.006,210.718z"/>
		<path style="fill:#BEC6CB;" d="M203.26,176.473c-3.681-2.184-7.785-3.37-12.755-3.838c-0.504-0.047-1.019-0.088-1.537-0.121
			c-1.114-0.069-2.264-0.11-3.462-0.117c-3.268-0.022-6.872,0.172-10.71,0.416c-0.522,0.033-1.048,0.066-1.577,0.099
			c-2.019,0.135-3.98,0.263-5.941,0.38c-2.728,0.161-5.448,0.285-8.044,0.318c-0.515,0.007-1.022,0.007-1.523,0.007l-1.723-0.007
			c-3.29-0.033-8.41-0.96-11.473-1.877c-0.537-0.161-1.012-0.321-1.399-0.478c-0.325-0.128-0.592-0.252-0.785-0.372
			c-0.066-0.036-0.121-0.077-0.172-0.113c-0.004,0,0.31,0.332,0.314,0.336c8.658,9.154,21.435,5.919,46.156,4.951
			c11.623-0.456,19.211,8.114,25.152,17.951c0.23-1.563,0.566-3.096,1.004-4.597h-0.004c-1.435-2.793-3.429-6.168-5.7-8.34
			c-1.475-1.482-2.98-2.739-4.561-3.801C204.107,176.992,203.688,176.725,203.26,176.473"/>
		<path style="fill:#BEC6CB;" d="M307.479,177.271c0.416-0.281,0.836-0.548,1.26-0.8v0.004c3.684-2.184,7.785-3.374,12.759-3.841
			c0.504-0.044,1.015-0.088,1.537-0.117c1.11-0.073,2.26-0.11,3.462-0.121c3.268-0.022,6.869,0.172,10.706,0.416
			c0.526,0.033,1.052,0.066,1.581,0.102c2.019,0.131,3.977,0.263,5.941,0.38c2.728,0.157,5.448,0.285,8.044,0.318
			c0.511,0.004,1.019,0.007,1.523,0.004l1.724-0.004c3.29-0.036,8.409-0.964,11.47-1.881c0.537-0.161,1.012-0.321,1.402-0.475
			c0.321-0.131,0.588-0.256,0.785-0.372c0.062-0.04,0.12-0.08,0.168-0.117c0.004,0-0.31,0.336-0.31,0.34
			c-8.662,9.151-21.435,5.919-46.156,4.948c-11.627-0.456-19.215,8.114-25.152,17.955c-0.23-1.567-0.57-3.1-1.004-4.597v-0.004
			c1.439-2.79,3.432-6.167,5.7-8.34C304.394,179.59,305.902,178.334,307.479,177.271"/>
		<path style="fill:#9E892E;" d="M256.001,48.161c-0.113,0.756-0.555,1.424-1.183,2.173c-0.632,0.749-1.446,1.581-2.308,2.666
			c-4.506,2.209-17.151,0.767-17.151,13.376c0,3.443,1.625,6.741,4.444,8.855c-3.513-0.785-6.792-3.356-7.939-8.621
			c-1.07-5.62,2.125-10.82,7.186-13.361c4.816-2.41,14.336-2.191,16.494-5.109C255.694,48.154,255.847,48.161,256.001,48.161"/>
		<path style="fill:#9E892E;" d="M230.882,57.718c-0.248,0.431-0.493,0.884-0.73,1.366c-0.037,0.077-0.077,0.153-0.113,0.234h-0.004
			c-4.112,0.979-7.175,4.667-7.175,9.081c0,1.764,0.376,3.487,1.344,4.813c0.19,0.256,0.38,0.489,0.581,0.712l0.004,0.004
			c-0.004,0-0.004-0.004-0.007-0.004c-4.371-4.28-3.973-9.647-0.909-14.11c1.767-2.578,4.422-4.853,7.562-6.445
			c0.018-0.011,0.04-0.022,0.059-0.033C231.072,54.556,230.787,56.203,230.882,57.718"/>
		<path style="fill:#9E892E;" d="M227.696,78.334L227.696,78.334l-0.015,0.004c3.86,2.242,7.066,6.887,7.573,11.44
			c6.796-2.644,11.594-4.228,20.748-4.228C246.541,76.625,232.731,78.472,227.696,78.334"/>
		<path style="fill:#9E892E;" d="M256.001,48.161c0.113,0.756,0.559,1.424,1.183,2.173c0.632,0.749,1.446,1.581,2.308,2.666
			c4.506,2.209,17.151,0.767,17.151,13.376c0,3.443-1.625,6.741-4.444,8.855c3.513-0.785,6.792-3.356,7.939-8.621
			c1.074-5.62-2.125-10.82-7.186-13.361c-4.816-2.41-14.336-2.191-16.494-5.109C256.307,48.154,256.154,48.161,256.001,48.161"/>
		<path style="fill:#9E892E;" d="M281.119,57.718c0.248,0.431,0.493,0.884,0.73,1.366c0.04,0.077,0.077,0.153,0.113,0.234h0.004
			c4.112,0.979,7.175,4.667,7.175,9.081c0,1.764-0.373,3.487-1.344,4.813c-0.186,0.256-0.38,0.489-0.581,0.712l-0.004,0.004
			l0.007-0.004c4.371-4.28,3.973-9.647,0.909-14.11c-1.767-2.578-4.422-4.853-7.562-6.445c-0.018-0.011-0.04-0.022-0.059-0.033
			C280.929,54.556,281.214,56.203,281.119,57.718"/>
		<path style="fill:#DBBF74;" d="M280.508,53.337c0.022,0.011,0.04,0.022,0.058,0.033c3.14,1.592,5.795,3.867,7.566,6.441
			c3.06,4.466,3.462,9.834-0.913,14.113l-0.007,0.004l-0.004,0.004c-3.348,3.728-8.275,2.965-9.728,2.633
			c-0.274-0.069-0.369-0.091-0.398-0.102c0.924,0.219,6.339-3.677,6.339-10.086c0-1.344-0.164-2.673-0.427-3.885
			c-0.263-1.212-0.628-2.308-1.03-3.173c-0.037-0.08-0.077-0.161-0.117-0.234c-0.234-0.482-0.478-0.935-0.73-1.366
			c-6.251-10.849-16.067-7.369-21.281-11.729c-0.354,0.588-0.84,1.088-1.417,1.461c-0.577,0.372-1.242,0.617-1.961,0.687
			c2.158,2.918,11.674,2.702,16.494,5.112c5.057,2.538,8.256,7.738,7.186,13.357c-1.15,5.266-4.429,7.84-7.939,8.621
			c-2.633-0.573-4.469-1.037-6.397-1.377c-1.928-0.343-3.947-0.559-6.942-0.646c0.836-1.745,1.468-3.626,1.88-5.601
			c0.354-1.676,0.555-3.418,0.555-5.214c0-3.177-0.57-6.321-1.807-9.388l-0.004-0.004c-1.72-2.165-3.257-3.323-3.487-4.835
			c-0.23,1.512-1.764,2.669-3.484,4.835l-0.004,0.004c-1.238,3.067-1.807,6.211-1.807,9.388c0,1.797,0.201,3.538,0.555,5.214
			c0.409,1.975,1.044,3.856,1.88,5.601c-2.994,0.088-5.014,0.303-6.942,0.646c-1.928,0.34-3.765,0.803-6.397,1.377
			c-3.509-0.781-6.788-3.356-7.939-8.621c-1.07-5.62,2.129-10.82,7.186-13.357c4.82-2.41,14.34-2.195,16.494-5.112
			c-0.719-0.069-1.384-0.314-1.961-0.687c-0.577-0.372-1.063-0.873-1.417-1.461c-5.214,4.36-15.03,0.88-21.281,11.729
			c-0.252,0.431-0.497,0.884-0.73,1.366c-0.04,0.073-0.08,0.153-0.117,0.234c-0.402,0.865-0.767,1.961-1.03,3.173
			c-0.263,1.212-0.427,2.541-0.427,3.885c0,6.408,5.415,10.305,6.339,10.086c-0.029,0.011-0.124,0.033-0.398,0.102
			c-1.453,0.332-6.379,1.095-9.728-2.633h-0.004v-0.004c-0.004,0-0.004-0.004-0.007-0.004c-4.375-4.28-3.977-9.647-0.913-14.113
			c1.771-2.574,4.426-4.849,7.562-6.441c0.022-0.011,0.04-0.022,0.062-0.033c-8.008,0.372-14.391,6.964-14.391,15.063
			c0,2.516,0.628,4.886,1.716,6.974c0.19,0.358,0.391,0.701,0.606,1.044c0.278-0.018,0.555-0.044,0.836-0.044
			c2.699,0,5.24,0.697,7.42,1.965c0,0,0.007-0.004,0.011-0.004h0.004c5.039,0.139,18.846-1.709,28.303,7.212h0.004
			c9.458-8.921,23.264-7.073,28.303-7.212c0.004,0,0.011,0,0.011,0c2.184-1.263,4.725-1.961,7.424-1.961
			c0.281,0,0.559,0.026,0.836,0.044c0.212-0.343,0.416-0.687,0.606-1.044c1.088-2.089,1.716-4.459,1.716-6.974
			C294.899,60.301,288.516,53.709,280.508,53.337"/>
		<path style="fill:#9E892E;" d="M284.306,78.334L284.306,78.334l0.015,0.004c-3.86,2.242-7.066,6.887-7.573,11.44
			c-6.796-2.644-11.594-4.228-20.748-4.228C265.46,76.625,279.27,78.472,284.306,78.334"/>
		<path style="fill:#69767B;" d="M369.842,170.768c0.004,0-0.31,0.336-0.31,0.34c-8.661,9.151-21.435,5.919-46.156,4.948
			c-11.627-0.453-19.214,8.114-25.152,17.955c-0.234-1.567-0.57-3.1-1.004-4.597c-0.46-1.581-1.026-3.122-1.694-4.616
			c-0.259-0.577-0.529-1.143-0.814-1.705c-0.011-0.015-0.018-0.036-0.029-0.055c-0.018-0.033-0.033-0.066-0.051-0.099
			c-0.789-1.534-1.687-3.009-2.684-4.415l37.07-18.89c7.285-3.714,12.985-9.308,16.808-15.888
			c-0.029,0.015-10.776,5.437-10.805,5.452c-0.201,0.11-5.039,2.742-3.699,6.602c0,0-4.163-4.754-4.532-8.033
			c0,0-0.201,2.688,0.106,5.532l-39.393,19.992c-1.734-1.72-3.582-3.188-5.408-4.44l12.795-16.458l-0.621-5.196l28.957-37.341
			l-1.252-0.99l-26.744,34.423l-17.593,22.833c-0.051-0.026-0.102-0.058-0.153-0.084h-0.011c-3.725-1.979-6.821-3.111-10.191-3.947
			v-16.98c0-1.059-0.599-2.027-1.548-2.498c-0.015-0.011-3.436-1.946-3.451-1.957V114.34c0-4.36-0.792-8.683-2.344-12.759
			l-3.936-10.966v16.388c0,2.377,0.263,3.776,4.7,3.984c-0.931,0.226-2.403,0.46-4.7,0.606c-1.432,0.091-2.943,0.106-5.087,0.106
			c0,0,0.062,0.584,1,1.161c0.573,0.354,1.479,0.708,2.899,0.92c0.361,0.051,0.756,0.099,1.187,0.131v46.813
			c-3.882-0.004-7.668,0.471-11.276,1.366c-3.6,0.891-7.862,2.589-10.389,3.991l-44.279-57.18l-1.282,0.953l28.957,37.341
			l-0.621,5.196l12.78,16.439c-1.125,0.774-2.173,1.563-3.104,2.352c-0.975,0.829-1.91,1.698-2.797,2.607l-23.414-11.794
			c-2.216-1.114-4.751-1.42-7.168-0.858l-1.245,0.296l1.534-3.005l-23.932-12.083c-3.275-1.654-7.274-0.347-8.939,2.921
			l-0.106,0.212l28.909,13.332c0.829,0.383,1.811,0.044,2.228-0.767l0.307-0.61l29.512,14.95c-3.115,3.819-5.51,8.256-6.894,13.029
			c-0.434,1.497-0.77,3.031-1.004,4.597c-5.937-9.841-13.525-18.407-25.152-17.955c-24.721,0.971-37.494,4.203-46.156-4.948
			c0-0.004-0.314-0.34-0.31-0.34c-0.234,0.676,0.562,2.096,0.986,2.724c2.253,3.327,8.566,8.227,22.154,7.493
			c13.832-0.741,20.938-1.242,25.568-0.822c3.169,0.285,5.824,1.304,8.132,2.848c2.136,1.081,4.13,2.976,6.164,6.127
			c0.124,0.194,0.248,0.387,0.373,0.588c0.296,0.106,0.592,0.23,0.891,0.369c3.871,1.815,6.047,4.696,6.686,7.033
			c0.029,0.102,0.055,0.201,0.077,0.303c0.004,0.022,0.091,0.643,0.281,3.765c-4.67-1.629-9.633-1.128-12.028-1.055
			c-7.511,0.226-13.927,0.314-14.719-0.643c0.004,0,0.004,0.004,0.004,0.004c0.734,1.026,5.163,3.06,12.671,2.899
			c3.381-0.077,8.859,0.018,13.832,1.581c0.183,0.055,0.365,0.117,0.544,0.175c0.303,2.048,0.782,4.042,1.424,5.974l-60.561,30.819
			c-3.286,1.676-4.59,5.696-2.918,8.983l5.108-2.563l28.844-14.694l-27.661,17.016l4.196,8.238l2.658-1.355
			c6.821-3.476,13.146-7.851,18.802-13.003l19.813-19.974l14.424-7.351c0.004,0.007,0.007,0.015,0.011,0.026
			c1.121,2.016,2.432,3.922,3.907,5.707c4.809,5.824,11.378,10.323,18.911,12.937c3.546,1.227,7.3,2.041,11.188,2.373
			c1.344,0.117,2.706,0.172,4.079,0.172v48.467c0,0,2.494-2.344,10.275-4.711c-1.526-0.329-2.878-1.008-3.915-2.07
			c-1.519-1.563-2.286-3.794-2.279-6.631v-35.227c3.885-0.332,7.643-1.147,11.185-2.373c7.533-2.611,14.106-7.113,18.915-12.937
			c1.172-1.42,2.242-2.921,3.195-4.491h-0.011c0.719-1.187,1.373-2.414,1.954-3.67l0.011,0.011l14.179,7.208
			c-1.793-3.71-4.747-6.569-8.121-8.256l-4.7-2.363c0.77-2.238,1.238-4.221,1.537-6.262c0.179-0.058,0.362-0.121,0.544-0.175
			c4.973-1.563,10.451-1.658,13.832-1.581c7.508,0.161,11.937-1.873,12.671-2.899c0,0,0-0.004,0.004-0.004
			c-0.792,0.957-7.208,0.869-14.719,0.643c-2.395-0.073-7.358-0.573-12.028,1.055c0.19-3.122,0.278-3.743,0.281-3.765
			c0.022-0.102,0.047-0.201,0.077-0.303c0.639-2.337,2.815-5.218,6.686-7.033c0.299-0.139,0.595-0.263,0.891-0.369
			c0.124-0.201,0.248-0.394,0.373-0.588c2.034-3.151,4.031-5.046,6.164-6.127c2.308-1.545,4.962-2.563,8.132-2.848
			c4.63-0.42,11.736,0.08,25.568,0.822c13.591,0.734,19.901-4.166,22.154-7.493C369.312,172.813,370.068,171.425,369.842,170.768
			 M256.001,236.653c-20.763,0-37.596-16.83-37.596-37.596c0-20.763,16.834-37.593,37.596-37.593
			c20.763,0,37.596,16.83,37.596,37.593C293.597,219.823,276.763,236.653,256.001,236.653"/>
		<path style="fill:#BEC6CB;" d="M356.764,221.583l-1.676,2.739l-5.656-2.582l-8.811-4.024l-1.369-0.624l-4.9-2.238l-8.201,0.08
			l-1.515,0.015l-11.721,0.117l-1.767-0.898l-1.34-0.683l-12.182-6.226c-0.248,1.015-0.555,2.059-0.935,3.162l4.7,2.363
			c3.345,1.672,6.277,4.499,8.074,8.161c0.018,0.033,0.033,0.062,0.047,0.095c4.145-0.573,8.358,0.157,12.068,2.089l26.992,14.051
			c5.463,2.845,7.613,9.56,4.816,15.048l-2.903,5.7l15.997-31.392L356.764,221.583z"/>
		<path style="fill:#BEC6CB;" d="M277.471,166.04h0.015c0.047,0.026,0.099,0.058,0.15,0.084l17.593-22.833l26.744-34.423
			l-2.246-1.775l-22.293,28.643l-18.769,24.239l16.107-26.324l-16.549,20.168l-2.534,0.091l-7.044,8.545
			C271.508,163.253,274.254,164.331,277.471,166.04"/>
		<path style="fill:#69767B;" d="M294.762,133.66l0.011-0.007l-2.198-1.738c-0.551-0.391-1.026-0.73-1.574-0.865
			c-1.614-0.391-2.954,0.891-3.301,3.893l-1.34,8.961L294.762,133.66z"/>
		<path style="fill:#9EA5A9;" d="M287.701,134.94c0.029-0.263,0.077-0.497,0.124-0.734c-7.486-3.706-15.691-6.157-24.356-7.051
			v1.482c8.588,0.906,16.72,3.363,24.115,7.084L287.701,134.94z"/>
		<polygon style="fill:#69767B;" points="297.388,135.794 294.77,133.65 278.663,159.971 		"/>
		<path style="fill:#BEC6CB;" d="M190.057,108.902l44.279,57.183c2.213-1.231,5.758-2.688,9.027-3.63l-7.051-8.545l-2.534-0.091
			l-16.545-20.168l-2.662,2.085l-22.296-28.643L190.057,108.902z"/>
		<path style="fill:#69767B;" d="M225.644,143.904l-1.344-8.965c-0.347-3.002-1.687-4.28-3.297-3.889
			c-0.551,0.135-1.026,0.475-1.577,0.862l-2.195,1.738L225.644,143.904z"/>
		<path style="fill:#9EA5A9;" d="M224.177,134.199c0.047,0.237,0.091,0.475,0.124,0.741l0.117,0.789
			c7.398-3.721,15.523-6.186,24.115-7.095v-1.479C239.867,128.05,231.655,130.496,224.177,134.199"/>
		<polygon style="fill:#69767B;" points="233.337,159.972 217.233,133.652 214.568,135.737 		"/>
		<path style="fill:#BEC6CB;" d="M312.046,153.63l-1.34,0.683l-12.141,6.186l-1.362,0.694l-15.074,7.683
			c1.811,1.249,3.652,2.706,5.375,4.415l39.393-19.992c-0.307-2.845-0.11-5.532-0.11-5.532c0.047,0.409,0.153,0.843,0.303,1.289
			c0.299,0.887,0.77,1.818,1.296,2.695c0.259,0.438,0.537,0.865,0.807,1.263c1.088,1.599,2.129,2.79,2.129,2.79
			c-0.168-0.486-0.241-0.949-0.234-1.391c0.018-1.986,1.566-3.535,2.713-4.411c0.383-0.292,0.723-0.511,0.946-0.646
			c0.358-0.215-0.727,0.347,11.075-5.609c-1.651-0.168-3.297-0.234-4.758-0.208v-0.004c-0.573,0.011-1.15,0.029-1.724,0.062
			c-4.678,0.267-9.374,1.344-13.887,3.297c-0.46,0.197-0.92,0.405-1.377,0.624c-0.329,0.157-0.661,0.318-0.99,0.486L312.046,153.63z
			"/>
		<path style="fill:#9EA5A9;" d="M301.71,233.191c2.494-3.301,4.641-6.879,6.379-10.677l-1.315-0.672
			c-1.65,3.615-3.695,7.007-6.043,10.162L301.71,233.191z"/>
		<path style="fill:#9EA5A9;" d="M309.877,246.405c3.02-3.414,5.744-7.099,8.081-11.039l-0.935-1.315
			c-2.326,4.006-5.039,7.76-8.081,11.218L309.877,246.405z"/>
		<path style="fill:#9EA5A9;" d="M319.323,257.9c3.739-3.998,7.12-8.333,10.053-12.985l-1.282-0.723
			c-2.845,4.491-6.113,8.683-9.717,12.558L319.323,257.9z"/>
		<path style="fill:#9EA5A9;" d="M328.75,269.371c4.309-4.437,8.22-9.26,11.667-14.42l-0.902-1.3
			c-3.443,5.222-7.373,10.097-11.703,14.573L328.75,269.371z"/>
		<path style="fill:#9EA5A9;" d="M184.192,268.226c-4.218-4.36-8.052-9.096-11.429-14.161c-0.409,0.274-0.833,0.511-1.245,0.774
			l-0.007,0.004c3.465,5.203,7.402,10.06,11.74,14.53L184.192,268.226z"/>
		<path style="fill:#9EA5A9;" d="M193.623,256.75c-3.381-3.633-6.471-7.548-9.184-11.729c0,0-0.957,0.869-1.103,1.004
			c2.764,4.236,5.901,8.198,9.341,11.875L193.623,256.75z"/>
		<path style="fill:#9EA5A9;" d="M203.073,245.251c-2.983-3.396-5.671-7.058-7.968-10.98l-1.074,1.081
			c2.341,3.947,5.068,7.635,8.092,11.053L203.073,245.251z"/>
		<path style="fill:#9EA5A9;" d="M211.265,232.01c-1.844-2.472-3.502-5.098-4.919-7.862l-1.314,0.672
			c1.512,2.943,3.29,5.733,5.269,8.358L211.265,232.01z"/>
		<path style="fill:#9EA5A9;" d="M199.493,114.544c-0.31,0.208-0.621,0.42-0.928,0.632l0.906,1.165
			c0.318-0.223,0.639-0.438,0.96-0.654c14.829-9.954,32.47-15.994,51.447-16.768l0.537-1.497
			C232.879,98.109,214.72,104.291,199.493,114.544"/>
		<path style="fill:#9EA5A9;" d="M230.113,149.362c0.445-0.234,0.891-0.471,1.344-0.694c3.823-1.881,7.895-3.341,12.149-4.309
			c0.117-0.613,0.376-1.183,0.749-1.669c-4.875,1.012-9.523,2.644-13.858,4.809c-0.449,0.226-0.895,0.467-1.336,0.705
			L230.113,149.362z"/>
		<path style="fill:#9EA5A9;" d="M280.545,148.669c0.453,0.223,0.898,0.46,1.344,0.694l0.957-1.165
			c-0.445-0.237-0.887-0.471-1.34-0.697c-4.334-2.165-8.983-3.801-13.858-4.813c0.372,0.486,0.628,1.055,0.745,1.672
			C272.65,145.328,276.718,146.785,280.545,148.669"/>
		<path style="fill:#9EA5A9;" d="M303.464,127.987l0.909-1.168c-0.42-0.281-0.84-0.562-1.267-0.84
			c-11.656-7.57-25.243-12.404-39.842-13.62c0.026,0.493,0.062,0.982,0.069,1.479c14.219,1.216,27.456,5.93,38.834,13.288
			C302.603,127.407,303.034,127.695,303.464,127.987"/>
		<path style="fill:#9EA5A9;" d="M312.53,116.339l0.906-1.165c-0.307-0.212-0.617-0.424-0.927-0.632
			c-15.227-10.254-33.39-16.432-52.922-17.118l0.533,1.493c18.977,0.778,36.621,6.814,51.45,16.768
			C311.891,115.901,312.212,116.12,312.53,116.339"/>
		<path style="fill:#69767B;" d="M247.219,145.404l2.501,14.577v-19.324l-1.041,0.592c-1.19,0.672-1.829,2.019-1.596,3.363
			L247.219,145.404z"/>
		<path style="fill:#69767B;" d="M196.581,270.609c0,0,1.387,7.54,2.68,13.982c-0.084-0.208-0.175-0.405-0.263-0.606
			c-0.088-0.201-0.665-1.731-2.049-3.871c-1.121-1.683-2.191-3.107-3.757-4.714h-0.007c-6.032-0.825-15.117,0.018-18.853,4.824
			c-0.237,0.285-0.351,0.628-0.351,0.964c0,0.504,0.248,0.997,0.716,1.293l24.396,12.087c0.252,0.157,0.529,0.234,0.803,0.234
			c0.402,0,0.792-0.161,1.081-0.449c0.329-0.329,0.497-0.825,0.646-1.643c5.7-22.358,17.794-41,20.734-45.316
			c0.471-0.687,0.643-0.858,0.734-0.946c0.329-0.332,0.782-0.533,1.285-0.533c0.5,0,0.949,0.201,1.278,0.529
			c0.347,0.347,0.431,0.635,0.829,1.851c0.029,0.088,3.666,11.17,3.779,11.627c0.168,0.61,0.427,1.074,0.749,1.399
			c0.38,0.38,0.851,0.566,1.377,0.566c0.617,0,1.307-0.256,2.019-0.752l6.576-4.594c0,0,0.201-0.157,0.252-0.208
			c0.212-0.212,0.343-0.508,0.343-0.833c0-0.307-0.124-0.614-0.347-0.836c-0.212-0.212-0.511-0.318-0.595-0.318l-6.865-1.282
			c-0.007,0.011-0.011,0.018-0.018,0.033v0.004c-0.865,1.574-1.899,3.637-2.534,5.466c0.088-1.406,0.486-7.884,0.643-10.312
			l-3.889-9.961c-0.431-1.099-1.417-1.884-2.585-2.052c-1.169-0.172-2.337,0.299-3.06,1.231L196.581,270.609z"/>
		<path style="fill:#9EA5A9;" d="M174.206,280.402c0.004-0.004,0.007-0.011,0.011-0.015c0.015-0.022,0.026-0.047,0.044-0.069
			c0.022-0.029,0.044-0.058,0.069-0.091l0,0c0.15-0.194,0.307-0.376,0.471-0.555c-8.439-8.442-15.442-18.046-20.949-28.774
			l-1.326,0.643c5.591,10.918,12.868,20.832,21.475,29.417C174.031,280.763,174.1,280.577,174.206,280.402"/>
		<path style="fill:#BEC6CB;" d="M174.589,279.912c3.882-4.528,12.696-5.317,18.597-4.51h0.004c1.57,1.607,2.636,3.027,3.761,4.71
			c1.38,2.143,1.961,3.67,2.049,3.871c0.084,0.204,0.179,0.398,0.259,0.606c-1.293-6.438-2.68-13.982-2.68-13.982l25.751-33.134
			c0.723-0.931,1.892-1.402,3.06-1.234c1.169,0.172,2.154,0.953,2.582,2.052l3.893,9.965c-0.161,2.425-0.559,8.902-0.643,10.312
			c0.635-1.833,1.669-3.893,2.534-5.47l0,0c0.007-0.015,0.007-0.026,0.015-0.033l6.869,1.282c0.084,0,0.38,0.102,0.592,0.314
			c0.113,0.113,0.197,0.245,0.256,0.383c-0.511-1.727-6.817-22.764-6.817-22.764c-4.995-2.611-9.381-6.105-12.846-10.297
			c-0.383-0.464-0.756-0.938-1.114-1.417l-16.421,19.901l0.186,3.078L174.589,279.912z"/>
		<path style="fill:#69767B;" d="M315.421,270.609c0,0-1.388,7.54-2.677,13.982c0.08-0.208,0.175-0.405,0.259-0.606
			c0.088-0.201,0.665-1.731,2.049-3.871c1.125-1.683,2.191-3.107,3.757-4.714h0.007c6.032-0.825,15.117,0.018,18.853,4.824
			c0.237,0.285,0.351,0.628,0.351,0.964c0,0.504-0.248,0.997-0.716,1.293l-24.396,12.087c-0.252,0.157-0.529,0.234-0.803,0.234
			c-0.402,0-0.792-0.161-1.081-0.449c-0.329-0.329-0.497-0.825-0.646-1.643c-5.7-22.358-17.794-41-20.734-45.316
			c-0.467-0.687-0.643-0.858-0.734-0.946c-0.329-0.332-0.781-0.533-1.285-0.533c-0.5,0-0.949,0.201-1.278,0.529
			c-0.347,0.347-0.431,0.635-0.829,1.851c-0.029,0.088-3.666,11.17-3.779,11.627c-0.168,0.61-0.427,1.074-0.749,1.399
			c-0.38,0.38-0.851,0.566-1.377,0.566c-0.617,0-1.307-0.256-2.019-0.752l-6.576-4.594c0,0-0.201-0.157-0.248-0.208
			c-0.215-0.212-0.347-0.508-0.347-0.833c0-0.307,0.124-0.614,0.347-0.836c0.212-0.212,0.511-0.318,0.595-0.318l6.865-1.282
			c0.011,0.011,0.011,0.018,0.018,0.033v0.004c0.865,1.574,1.899,3.637,2.534,5.466c-0.088-1.406-0.486-7.884-0.643-10.312
			l3.893-9.961c0.427-1.099,1.413-1.884,2.582-2.052c1.169-0.172,2.337,0.299,3.06,1.231L315.421,270.609z"/>
		<path style="fill:#9EA5A9;" d="M372.176,198.752c0-8.205-0.858-16.213-2.483-23.94c-0.281,0.519-0.825,1.238-1.168,1.647
			c1.428,7.212,2.176,14.668,2.176,22.293c0,19.346-4.816,37.589-13.31,53.594h0.004c-5.386,10.148-12.134,19.266-20.193,27.328
			c0.164,0.175,0.321,0.362,0.467,0.548c0,0.004,0,0.004,0.004,0.004c0.022,0.029,0.047,0.062,0.069,0.095
			c0.015,0.022,0.029,0.04,0.044,0.062c0.004,0.007,0.007,0.015,0.011,0.018c0.106,0.175,0.175,0.365,0.204,0.559
			c8.216-8.198,15.223-17.608,20.704-27.945C367.301,236.809,372.176,218.339,372.176,198.752"/>
		<path style="fill:#BEC6CB;" d="M337.413,279.912c-3.882-4.528-12.697-5.317-18.597-4.51h-0.007
			c-1.567,1.607-2.633,3.027-3.758,4.71c-1.384,2.143-1.961,3.67-2.049,3.871c-0.084,0.204-0.179,0.398-0.259,0.606
			c1.289-6.438,2.677-13.982,2.677-13.982l-25.747-33.134c-0.723-0.931-1.892-1.402-3.06-1.234
			c-1.169,0.172-2.154,0.953-2.582,2.052l-3.893,9.965c0.161,2.425,0.559,8.902,0.643,10.312c-0.635-1.833-1.669-3.893-2.534-5.47
			c-0.007-0.015-0.007-0.026-0.015-0.033l-6.869,1.282c-0.084,0-0.38,0.102-0.595,0.314c-0.11,0.113-0.197,0.245-0.256,0.383
			c0.515-1.727,6.821-22.764,6.821-22.764c4.992-2.611,9.381-6.105,12.846-10.297c0.383-0.464,0.756-0.938,1.114-1.417
			l16.417,19.901l-0.186,3.078L337.413,279.912z"/>
	</g>
</svg>
