<svg xmlns="http://www.w3.org/2000/svg" width="471.924" height="102.852" viewBox="0 0 471.924 102.852"><defs><style>.a,.d{fill:#008755;}.b,.c{fill:#9b945f;}.c,.d{fill-rule:evenodd;}</style></defs><g transform="translate(153)"><rect class="a" width="4.064" height="46.497" transform="translate(85.364 0.001)"/><path class="a" d="M75.964,90.393c0,6.978,5.779,12.246,13.435,12.246h9.132V73.549C85.257,71.7,75.964,80.241,75.964,90.393Zm18.5,9.242H90.593c-15.379,0-12.495-22.985,2.389-22.985h1.482Z" transform="translate(-43.437 -56.14)"/><path class="b" d="M93.552,119.249a2.066,2.066,0,0,1-2.984-.909c-.281-.652-.1-.352-.154-13.882h4.169V102.9H90.414V96.548H89.356c-.769,3.922-1.783,6.995-5.852,6.995v.916h3.219c.068,13.3-.161,13.479.217,14.869a3.26,3.26,0,0,0,3.419,2.564,5.42,5.42,0,0,0,5-2.772l-.918-.625A3.35,3.35,0,0,1,93.552,119.249Zm-33.176-23.3c1.429,2.682,5.759.081,3.439-2.027C62.086,92.46,59.5,94.184,60.376,95.952ZM70.9,106.224c0-2.589,5.432-4.367,8.707.952l1.351-1.214a7.577,7.577,0,0,0-4.728-3.312c-4.911-.8-8.082,1.9-8.082,5.063,0,3.739,3.409,5.024,6.8,6.594,5.869,2.7,2.5,7.349-1.81,6.1a7.918,7.918,0,0,1-3.866-3.331l-1.509,1.365a8.489,8.489,0,0,0,3.456,2.811c2.479,1.072,6.626.833,8.751-.984a4.973,4.973,0,0,0,.066-7.561C77.143,110.137,70.9,109.573,70.9,106.224Zm35.677-3.7c-2.154,0-4.1,2.115-5.317,3.893V102.9H97.594v18.591h3.671V108.615a13.284,13.284,0,0,1,1.514-2.071,2.007,2.007,0,0,1,2.877-.4,3.1,3.1,0,0,0,3.239-.037,1.892,1.892,0,0,0-.278-2.921A3.255,3.255,0,0,0,106.582,102.522ZM32.671,93.927a1.677,1.677,0,0,0,0,2.616c1.966,1.717,4.965-.857,2.98-2.616A2.316,2.316,0,0,0,32.671,93.927ZM44.208,106.3V102.9H40.525v18.591h3.683V107.714c3.93-3.793,8.191-3.646,8.191,1.058v12.72h3.7V108.147a6.264,6.264,0,0,0-1.375-3.981C52.019,100.893,47.237,102.905,44.208,106.3Zm-30.5,9.591h-.191L4.137,97.381H0v24.11H1.783V101.882h.278l10,19.609h.83l9.884-19.748h.137v19.748h4.069V97.381H22.916m37.6,6.2v17.909h3.668V102.522H63.112m-30.758,1.06v17.909h3.668V102.522H34.949m219.275-8.086v27.056h3.685V93.385h-1.055m13.65,25.864a2.068,2.068,0,0,1-2.987-.909c-.283-.645-.105-.3-.156-13.882h4.174V102.9h-4.174V96.548h-1.055c-.767,3.964-1.8,6.995-5.854,6.995v.916h3.224c.068,13.325-.159,13.462.213,14.869a3.26,3.26,0,0,0,1.8,2.252,5.669,5.669,0,0,0,4.648-.435,5.573,5.573,0,0,0,1.976-2.025l-.921-.625A3.331,3.331,0,0,1,270.5,119.249ZM247.642,103.87c-1.925-1.573-5.759-1.573-8.013-1.011-6.067,1.492-5.256,6.186-2.684,6.186,1.409,0,1.837-1.077,1.837-2.474a2.917,2.917,0,0,1,.581-1.937c.852-1.021,2.823-1.043,3.944-.65a3.006,3.006,0,0,1,1.859,2.181,14.527,14.527,0,0,1,.247,3.3,31.2,31.2,0,0,0-7.417,2.557c-8.213,4.408-1.436,14.153,6.128,7.945.418-.339.85-.684,1.29-1.018v2.542h3.7C249.007,107.028,249.7,105.56,247.642,103.87Zm-2.23,13.726a10.3,10.3,0,0,1-3.226,1.881,3.223,3.223,0,0,1-3.874-4.457c1.16-2.152,4.787-3.607,7.1-4.362Zm44.33-11.638c-1.866-5.314-7.745-3.893-11.513.337V93.385h-1.053l-2.63,1.05v27.056h3.683V107.714c3.869-3.756,8.191-3.683,8.191,1.058v12.72h3.688C290,108.046,290.375,107.736,289.742,105.958Zm-145.864-.537a9.643,9.643,0,0,0,7.053,16.471c8.824,0,13.02-11.039,7.027-16.715A10.305,10.305,0,0,0,143.878,105.421Zm12.351,10.827c-.64,2.232-2.286,4.279-4.606,4.279-6.66,0-8.651-12.825-3.392-16.085,1.837-1.138,5.2-.562,6.89,2.286A14.383,14.383,0,0,1,156.229,116.248Zm-34.883.088-7.18-13.416H109.96l9.518,17.7c-1.47,3.285-2.01,4.9-3.2,5.783a2.092,2.092,0,0,1-1.868.2c-.589-.244-.589-.352-1.207-.591a2.249,2.249,0,0,0-3.124,1.9c0,2.9,6.538,3.737,9.61-3.168l9.486-21.829H127.2Zm55.931-22.027a7.173,7.173,0,0,0-8.709,1.211c-2.508,2.657-1.954,5.766-2.025,7.381h-3.891v1.558h3.891v17.033h3.7V104.459h4.97V102.9h-4.97c.042-3.519-.32-5.415.72-6.992a2.3,2.3,0,0,1,1.842-1.165c2.909,0,1.189,3.554,3.913,3.554C178.908,98.3,179.368,95.642,177.277,94.308Zm52.739,21.9a7.523,7.523,0,0,1-3.546,2.472c-5.126,1.817-8.875-2.516-8.875-8.316h13.865c0-7.644-10.009-10.551-14.908-4.9-5.476,6.384-1.719,16.432,6.6,16.432a9.764,9.764,0,0,0,8.809-6.909l-1.055-.464A5.269,5.269,0,0,1,230.016,116.206Zm-11.931-9.315c2.227-5.19,8.751-3.033,8.751,1.983l-9.225-.02A6.142,6.142,0,0,1,218.085,106.891Zm-12.422,1.48H193.548V97.381H189.5v24.11h4.049V109.932h12.116v11.559h4.054V97.381h-4.054" transform="translate(-153 -27.211)"/><path class="c" d="M123.69,28.636c-24.941,3.6-79.273,50.481-79.273,50.481h22.2c14.113-15.864,35.216-32.766,46.4-39.519,8.95-5.4,15.343-5.668,15.343-5.668A22.334,22.334,0,0,1,152.7,58.817C154.534,41.508,145.915,25.437,123.69,28.636Z" transform="translate(165.982 23.732)"/><path class="c" d="M44.6,28.636c-22.225-3.2-30.848,12.873-29.012,30.181A22.347,22.347,0,0,1,39.931,33.93s6.393.265,15.343,5.668c10.332,6.242,31.676,22.973,46.4,39.519h22.2S69.536,32.231,44.6,28.636Z" transform="translate(141.538 23.732)"/><path class="a" d="M143.445,109.767H130.352a42.965,42.965,0,0,0,.725-6.856c0-15.57-11.652-21.993-23.046-13.938-8.167,5.759-9.862,11.332-14.837,20.794h-.208V94.275H88.921v15.492H77.066v-1.548c0-16.376-11.848-22.188-21.988-22.188H39.457v3.458c1.138-.085,14.422-.122,15.091-.122,19.538,0,18.107,20.154,18.19,20.4H22.622V83.681c-1.192-.142-3.3-.237-4.228-.237C11,83.444.053,88.766.053,100.193c0,7.874,5.927,12.578,13.44,12.578h1.292l2.8-3h-2.97c-11.789,0-13.074-14-5.371-20.056a13.676,13.676,0,0,1,7.891-2.928h1.417v25.989H147.517v-46.5h-4.071Zm-17.186-.52-.127.52H97.093l.188-.838c2.535-11.315,12.7-20.093,19.763-20.093,2.274,0,9.7,1.067,9.7,14.8A28.217,28.217,0,0,1,126.259,109.247Z" transform="translate(-152.924 -66.272)"/><circle class="a" cx="3.092" cy="3.092" r="3.092" transform="translate(-136.023 4.537)"/><path class="a" d="M65.689,66.273h4.066v46.5H65.689Z" transform="translate(-58.257 -66.271)"/><circle class="a" cx="3.092" cy="3.092" r="3.092" transform="translate(39.336 4.563)"/><circle class="a" cx="3.092" cy="3.092" r="3.092" transform="translate(-145.272 4.537)"/><circle class="a" cx="3.094" cy="3.094" r="3.094" transform="translate(101.366 4.561)"/><path class="a" d="M162.826,73.681c-10.587,0-18.877,7.215-18.877,16.424,0,8.294,7.268,12.534,14.439,11.94l2.887-2.965h-2.694c-5.126,0-10.3-2.919-10.3-9.437A12.987,12.987,0,0,1,160.9,77.286h.686V102.7c0,4.867-.911,9.374-7.515,9.374a13.087,13.087,0,0,1-2.091-.212l-.513,3.107a17.968,17.968,0,0,0,3.663.305c3.168,0,10.519-1.058,10.519-10.849V73.918A20.547,20.547,0,0,0,162.826,73.681Zm-32.065,30.946c0,5.334-2.144,7.508-7.383,7.508a13.677,13.677,0,0,1-2.02-.205l-.51,3.258c9.916,1.431,13.977-2.97,13.977-9.305V77.13h-4.064Zm-34.407,0c0,5.334-2.142,7.508-7.383,7.508a13.84,13.84,0,0,1-2.022-.205l-.51,3.258c9.933,1.431,13.975-2.984,13.975-9.305V77.13H96.354Z" transform="translate(-28.33 -55.586)"/><circle class="a" cx="3.092" cy="3.092" r="3.092" transform="translate(48.583 4.563)"/><path class="a" d="M39.839,67.418,33.19,74.073l-6.653-6.654-7.578,7.571,7.578,7.571,6.653-6.653,6.649,6.653,7.575-7.571M109.867,9.914a26.872,26.872,0,0,1,18.352,8.709A26.868,26.868,0,0,0,94.688,3.886C94.016,1.428,93.49,0,93.49,0s-.536,1.428-1.2,3.886A26.865,26.865,0,0,0,58.758,18.623,26.86,26.86,0,0,1,77.107,9.914,26.85,26.85,0,0,0,66.988,35.667,26.912,26.912,0,0,1,79.55,17.161,26.847,26.847,0,0,0,83.7,47.369a26.87,26.87,0,0,1,6.176-30.109c-.186,2-.3,4.1-.3,6.273A75.022,75.022,0,0,0,93.49,47.067a76.094,76.094,0,0,0,3.617-29.808,26.872,26.872,0,0,1,6.172,30.109,26.864,26.864,0,0,0,4.145-30.207A26.882,26.882,0,0,1,119.99,35.667,26.861,26.861,0,0,0,109.867,9.914Z" transform="translate(144.578)"/><path class="d" d="M97.955,47.1C64,10.933,44.678,38.811,44.678,38.811s16.561-16.383,48.035,18.4c14.141,15.634,26.774,21.741,36.957,21.636,7.816-.081,15-3.74,20.053-11.652a15.319,15.319,0,0,0,1.3-2.6C141.928,75.411,129.935,81.152,97.955,47.1Z" transform="translate(166.202 24.007)"/></g></svg>