<svg xmlns="http://www.w3.org/2000/svg" width="322.173" height="215.533" viewBox="0 0 322.173 215.533"><defs><style>.a{fill:#ada9ae;}.b{fill:#29367b;}.c{fill:#b1aeb3;}.d{fill:#d0da33;}.e{fill:#71ba44;}.f{fill:#27b8be;}.g{fill:#58b75e;}.h{fill:#3088c8;}.i{fill:#1e3871;}.j{fill:#727a82;}</style></defs><g transform="translate(0)"><g transform="translate(0)"><path class="a" d="M229.694,122.377v.235c0,15.546-11.328,26.97-29.737,26.97-14.868,0-25.134-5.889-32.213-14.251l12.509-11.9c5.663,6.361,11.564,9.893,19.942,9.893,6.844,0,11.682-3.885,11.682-10.01-.091-.162,1.335-10.716-16.167-10.716h-7.552l-2.833-11.544,26.5-26.6L201.2,81.275H172.582V65.73H228.4V79.391l-20.885,19.9c11.21,1.885,22.184,7.772,22.184,23.083m-51.8-94.345c0-7.464,5.361-13.471,12.885-13.471h8.479l-2.22,1.106c.1,20.458-.406,23.035.9,26.025l-7.068,0c-7.524,0-12.979-6.1-12.979-13.564Zm12.885,17.086h7.529V42.411a5.232,5.232,0,0,0,2.377,2.207c2.395,1.137.654.422,69.335.633V11.135H266.4v30.5s-62.8.242-63.993-.294a3.158,3.158,0,0,1-1.585-2.666c-.274-1.843-.107-1.877-.157-27.54h-9.789a16.662,16.662,0,0,0-16.836,16.991v.094c0,9.058,6.725,16.9,16.741,16.9m105.938-37.6h-7.936c.172-2.624-1.042-7.517,4.3-7.517h2.556V2.52c-2.474.183-3.9-.6-3.9,1.374V4.73h4.975Zm9.174,38.1a11.106,11.106,0,0,1-2.944-.408l.952-3.479c1.638.466,3.733.494,4.6-.971,1.008-1.734.648-2.345.7-29.627h3.622c-.1,25.467.25,26.178-.339,29.13-.695,3.453-2.789,5.355-6.589,5.355M200.66,7.517h-3.624V3.9h3.624Zm79.731,12.476a10.035,10.035,0,0,1,8.917-5.192v-.006h5.853l-2.069,1.031V32.062c-2.851-.084-4.855.271-7.495-.567a8.043,8.043,0,0,1-6.046-7.932,7.668,7.668,0,0,1,.839-3.57m0,12.814c4.717,3.361,11.148,2.806,11.484,2.869l1.218-2.551c-.2,2.473.68,5.928-1.63,7.659-1.953,1.46-5.436,1.413-7.586.9a17.6,17.6,0,0,1-3.057-1.083l-1.132,3.479a19.759,19.759,0,0,0,6.928,1.536q5.3,0,7.7-2.507a9.375,9.375,0,0,0,2.4-6.758V11.135c-4.459.14-7.841-.45-11.909.95-10.9,3.749-11.12,15.949-4.415,20.723M193.414,7.517H189.79V3.9h3.624Zm-37.5,3.579h3.741V45.048h-3.062L132.5,14.509l2.13,4.949v25.59h-3.743V11.1h3.6l23.007,29.209-1.577-4.166ZM14.627,45.29,0,11.1H4.277L17.334,42.658l-.37-3.731L28.526,11.1h4.129L18.029,45.29ZM79.448,11.1h3.838v33.95H79.448Zm41.172,17.073c0,7.712-5.538,13.92-13.314,13.92s-13.413-6.3-13.413-14.015v-.1c0-7.711,5.542-13.918,13.316-13.918s13.411,6.3,13.411,14.017ZM107.307,10.515c-10.351,0-17.4,8.2-17.4,17.558v.1c0,9.36,6.949,17.461,17.3,17.461s17.4-8.2,17.4-17.556v-.1c0-9.359-6.949-17.459-17.3-17.459M73.114,35.832v.1c0,5.819-4.86,9.6-11.614,9.6A19.918,19.918,0,0,1,47.6,40.1l2.38-2.812c3.548,3.2,6.949,4.8,11.664,4.8,4.567,0,7.579-2.422,7.579-5.77v-.1c0-9.476-20.263-3.225-20.263-16.249v-.1c0-5.335,4.713-9.265,11.177-9.265a17.767,17.767,0,0,1,11.953,4.173L69.861,17.74c-7.712-6.274-17.058-3.871-17.058,1.8v.1c0,3.2,1.749,4.994,9.234,6.6,7.581,1.65,11.078,4.415,11.078,9.6M41.708,45.048H37.87V11.1h3.838ZM265.13,48.865h3.624v3.616H265.13Zm-7.246,0h3.624v3.616h-3.624ZM30.378,132.5h31.5v15.667H.749V133.8c30.542-25.92,41.773-30.986,41.773-42.28,0-6.949-4.6-10.718-11.093-10.718-6.373,0-10.739,3.531-16.875,11.068L1.81,81.629C9.953,70.557,17.86,64.55,32.609,64.55c17.11,0,28.438,10.011,28.438,25.441v.234c0,19.347-14.647,25.584-39.763,45.824l-3.507,2.7Zm272.8-25.319c0,14.132-10.148,25.675-24.782,25.675s-25.016-11.778-25.016-25.912v-.235c0-14.132,10.149-25.673,24.78-25.673s25.017,11.778,25.017,25.909ZM278.394,64.316c-25.486,0-44.014,19.2-44.014,42.632v.237c0,23.437,18.289,42.4,43.778,42.4s44.014-19.2,44.014-42.635v-.235c0-23.436-18.29-42.4-43.778-42.4" transform="translate(0.001)"/><path class="b" d="M70.06,36.272l4.184,4.007-4.015,4.174-4.183-4.007" transform="translate(41.19 22.621)"/><path class="c" d="M74.415,40.446,78.6,44.454l4.015-4.174-4.183-4.007" transform="translate(46.41 22.621)"/><path class="d" d="M70.787,43.333l3.259,3.119L77.17,43.2l-3.255-3.119" transform="translate(44.147 24.997)"/><path class="e" d="M78.142,44.432,81.4,47.552,84.523,44.3l-3.257-3.121" transform="translate(48.734 25.682)"/><path class="d" d="M67.507,46.394l3.257,3.121,3.124-3.251-3.254-3.121" transform="translate(42.102 26.906)"/><path class="f" d="M74.238,46.627l3.255,3.121L80.619,46.5l-3.257-3.121" transform="translate(46.299 27.051)"/><path class="e" d="M71.6,48.56l2.291,2.2,2.2-2.288-2.291-2.2" transform="translate(44.657 28.857)"/><path class="g" d="M76.928,49.62l2.291,2.2,2.2-2.288-2.291-2.194" transform="translate(47.977 29.52)"/><path class="h" d="M88.553,38.529l7.107-1.3,1.3,7.094-7.107,1.3Z" transform="translate(55.227 23.216)"/><path class="i" d="M82.841,40.261l5.7-1.044,1.042,5.693-5.7,1.044Z" transform="translate(51.665 24.458)"/><path class="f" d="M89.629,45.147l5.7-1.046,1.042,5.692-5.7,1.046Z" transform="translate(55.898 27.503)"/><path class="d" d="M84.786,45.571l4.441-.813.812,4.429L85.6,50Z" transform="translate(52.878 27.913)"/><path class="c" d="M90.106,50.756l4.441-.813.812,4.431-4.441.813Z" transform="translate(56.195 31.147)"/><path class="f" d="M80.689,46.681l4.442-.813.812,4.431-4.442.813Z" transform="translate(50.323 28.605)"/><path class="e" d="M85.652,50.256l4.441-.813.812,4.433-4.441.813Z" transform="translate(53.418 30.835)"/><path class="c" d="M82.167,50.494l3.124-.573.572,3.117-3.124.573Z" transform="translate(51.244 31.133)"/><path class="g" d="M85.863,54.462l3.122-.57.57,3.116-3.122.572Z" transform="translate(53.549 33.61)"/><path class="b" d="M102.765,52.342l-3.106,6.514,6.527,3.1,3.1-6.512" transform="translate(62.153 32.643)"/><path class="f" d="M96.824,50.489l-2.491,5.225L99.568,58.2l2.491-5.225" transform="translate(58.832 31.487)"/><path class="e" d="M99.462,58.416l-2.491,5.227,5.236,2.484L104.7,60.9" transform="translate(60.477 36.431)"/><path class="d" d="M95.025,56l-1.939,4.069,4.077,1.935,1.94-4.069" transform="translate(58.054 34.925)"/><path class="d" d="M96.3,63.315l-1.94,4.069,4.075,1.935,1.942-4.069" transform="translate(58.848 39.486)"/><path class="h" d="M91.051,54.51l-1.94,4.069,4.077,1.935,1.94-4.069" transform="translate(55.575 33.995)"/><path class="c" d="M92.982,60.308l-1.94,4.069,4.075,1.935,1.942-4.069" transform="translate(56.779 37.611)"/><path class="e" d="M89.742,58.541,88.376,61.4l2.867,1.361L92.609,59.9" transform="translate(55.117 36.509)"/><path class="f" d="M89.044,66.773l1.362-2.863,2.866,1.364L91.91,68.137Z" transform="translate(55.533 39.858)"/><path class="h" d="M106.17,71.551l-6.335,3.468,3.476,6.324,6.335-3.468" transform="translate(62.263 44.623)"/><path class="f" d="M102.15,66.717,97.068,69.5l2.788,5.072,5.082-2.783" transform="translate(60.537 41.608)"/><path class="f" d="M99.644,74.686,94.56,77.469l2.789,5.074,5.082-2.783" transform="translate(58.973 46.578)"/><path class="b" d="M97.2,70.261l-3.957,2.168,2.169,3.949,3.96-2.166" transform="translate(58.151 43.818)"/><path class="g" d="M93.946,76.936,89.988,79.1l2.171,3.949,3.958-2.166" transform="translate(56.122 47.981)"/><path class="i" d="M94.851,66.731,90.893,68.9l2.171,3.952,3.96-2.168" transform="translate(56.686 41.617)"/><path class="d" d="M93.018,72.56,89.06,74.728l2.171,3.949,3.958-2.166" transform="translate(55.543 45.252)"/><path class="c" d="M91.154,69.364l-2.785,1.525L89.9,73.667l2.783-1.523" transform="translate(55.112 43.259)"/><path class="f" d="M88.545,74.114,85.76,75.639l1.526,2.778,2.785-1.523" transform="translate(53.485 46.221)"/><path class="e" d="M89.266,94.992l.883-7.159,7.173.885-.885,7.16Z" transform="translate(55.672 54.777)"/><path class="i" d="M90.219,87.714l.711-5.743,5.753.713-.711,5.743Z" transform="translate(56.266 51.121)"/><path class="f" d="M83.512,92.713l.711-5.743,5.754.713-.711,5.743Z" transform="translate(52.083 54.238)"/><path class="e" d="M85.358,86.785l.554-4.472,4.48.554-.554,4.472Z" transform="translate(53.234 51.334)"/><path class="c" d="M78.8,90.295l.552-4.472,4.48.554-.554,4.472Z" transform="translate(49.148 53.523)"/><path class="c" d="M85.52,82.542l.555-4.473,4.481.555L90,83.1Z" transform="translate(53.335 48.687)"/><path class="e" d="M80.618,86.195l.554-4.47,4.481.555L85.1,86.752Z" transform="translate(50.278 50.967)"/><path class="c" d="M82.267,81.561l.388-3.145,3.151.39-.39,3.145Z" transform="translate(51.307 48.904)"/><path class="c" d="M77.361,83.886l.39-3.145,3.151.39-.388,3.145Z" transform="translate(48.247 50.354)"/><path class="d" d="M80.575,98.387l-5.3-4.908-4.916,5.287,5.3,4.907" transform="translate(43.882 58.298)"/><path class="e" d="M79.974,36.164l-5.3-4.908-4.916,5.287,5.3,4.907" transform="translate(43.507 19.493)"/><path class="f" d="M83.28,93.137,79.031,89.2l-3.944,4.241,4.249,3.936" transform="translate(46.829 55.629)"/><path class="e" d="M74.913,93.276l-4.251-3.937L66.718,93.58l4.249,3.936" transform="translate(41.61 55.716)"/><path class="h" d="M77.787,89.64l-3.309-3.065-3.07,3.3,3.307,3.065" transform="translate(44.534 53.992)"/><path class="d" d="M70.415,88.663,67.107,85.6l-3.07,3.3,3.309,3.067" transform="translate(39.938 53.383)"/><path class="d" d="M80.4,86.3,77.1,83.238l-3.07,3.3L77.332,89.6" transform="translate(46.167 51.911)"/><path class="c" d="M74.283,86.4l-3.309-3.065-3.07,3.3,3.307,3.065" transform="translate(42.349 51.974)"/><path class="i" d="M76.149,83.71l-2.327-2.158-2.159,2.323,2.327,2.156" transform="translate(44.694 50.86)"/><path class="c" d="M70.811,82.735l-2.327-2.156L66.323,82.9l2.327,2.156" transform="translate(41.363 50.253)"/><path class="h" d="M52.4,89.875l7.087-1.421,1.416,7.071L53.82,96.946Z" transform="translate(32.682 55.164)"/><path class="f" d="M59.121,88.53,64.8,87.39l1.138,5.675L60.258,94.2Z" transform="translate(36.872 54.5)"/><path class="e" d="M52.257,83.755l5.683-1.14,1.138,5.673L53.4,89.428Z" transform="translate(32.591 51.523)"/><path class="d" d="M58.015,83.687l4.426-.887.885,4.418L58.9,88.1Z" transform="translate(36.182 51.638)"/><path class="b" d="M62.093,82.507l4.426-.887.885,4.42-4.426.887Z" transform="translate(38.725 50.903)"/><path class="h" d="M57.07,79.016l4.426-.887.885,4.418-4.426.887Z" transform="translate(35.593 48.725)"/><path class="e" d="M61.519,79.176l3.114-.623.622,3.109-3.114.622Z" transform="translate(38.367 48.989)"/><path class="c" d="M57.76,75.266l3.113-.623.623,3.108-3.113.623Z" transform="translate(36.023 46.551)"/><path class="f" d="M46.914,82.385l3-6.563-6.577-2.991-3,6.563" transform="translate(25.157 45.421)"/><path class="d" d="M52.149,83.418l2.4-5.265-5.275-2.4-2.4,5.266" transform="translate(29.233 47.244)"/><path class="h" d="M49.377,75.536l2.4-5.265-5.277-2.4-2.4,5.267" transform="translate(27.505 42.327)"/><path class="f" d="M49.085,75.363l1.87-4.1,4.1,1.872-1.87,4.1Z" transform="translate(30.613 44.443)"/><path class="c" d="M56.58,83.541l1.872-4.1-4.108-1.867-1.872,4.1" transform="translate(32.725 48.379)"/><path class="b" d="M47.695,68.069l1.872-4.1,4.1,1.872-1.872,4.1Z" transform="translate(29.746 39.894)"/><path class="g" d="M53.088,76.785l1.872-4.1,4.1,1.872-1.87,4.1Z" transform="translate(33.109 45.33)"/><path class="d" d="M51.059,71.025l1.872-4.1,4.1,1.875-1.872,4.1Z" transform="translate(31.844 41.738)"/><path class="i" d="M57.747,73.925l1.317-2.884-2.89-1.315-1.317,2.885" transform="translate(34.213 43.484)"/><path class="e" d="M56.989,68.561l1.317-2.885-2.89-1.314L54.1,67.247" transform="translate(33.74 40.139)"/><path class="f" d="M43.277,63.323l6.279-3.572-3.582-6.266L39.7,57.057" transform="translate(24.758 33.356)"/><path class="e" d="M46.625,67.352l5.037-2.866-2.874-5.027-5.035,2.867" transform="translate(27.288 37.081)"/><path class="i" d="M49,59.342l5.037-2.866-2.874-5.028-5.035,2.867" transform="translate(28.769 32.085)"/><path class="h" d="M50.841,63.062l3.919-2.233-2.236-3.913L48.6,59.147" transform="translate(30.313 35.495)"/><path class="e" d="M53.983,56.334,57.9,54.1l-2.236-3.913L51.746,52.42" transform="translate(32.272 31.3)"/><path class="f" d="M53.246,66.552l3.923-2.231-2.236-3.915L51.01,62.64" transform="translate(31.813 37.673)"/><path class="d" d="M54.983,60.694,58.9,58.464l-2.236-3.915-3.921,2.233" transform="translate(32.897 34.019)"/><path class="c" d="M56.2,63.166l2.759-1.57-1.573-2.752-2.759,1.568" transform="translate(34.066 36.698)"/><path class="e" d="M58.724,58.373l2.76-1.57-1.573-2.752-2.76,1.57" transform="translate(35.643 33.709)"/><path class="e" d="M51.128,45.306l.766-7.172,7.185.768-.766,7.172Z" transform="translate(31.887 23.782)"/><path class="c" d="M51.261,50.745l.615-5.753,5.764.617-.615,5.753Z" transform="translate(31.97 28.059)"/><path class="f" d="M57.882,45.636l.615-5.754,5.764.617-.615,5.754Z" transform="translate(36.099 24.872)"/><path class="d" d="M57,49.928l.479-4.48,4.489.481-.481,4.48Z" transform="translate(35.55 28.343)"/><path class="h" d="M63.488,46.3l.479-4.48,4.488.477-.477,4.481Z" transform="translate(39.595 26.08)"/><path class="f" d="M56.9,54.163l.481-4.48,4.488.481-.481,4.48Z" transform="translate(35.488 30.985)"/><path class="e" d="M61.748,50.424l.481-4.48,4.488.481-.481,4.48Z" transform="translate(38.51 28.653)"/><path class="i" d="M61.076,53.343l.336-3.151,3.158.338-.338,3.152Z" transform="translate(38.091 31.302)"/><path class="c" d="M65.941,50.932l.336-3.151,3.16.336L69.1,51.269Z" transform="translate(41.125 29.798)"/><path class="j" d="M104.606,78.765a17.21,17.21,0,0,0-14.5-.815,28.164,28.164,0,0,0-6.784,4.015,73.619,73.619,0,0,1-.354-18.329.027.027,0,0,1,.042-.018c2.723,1.713,1.96,6.5,1.388,7.868-.011.028.029.045.049.023a8.446,8.446,0,0,0,1.039-9.552c-.127-.2.641.412,1.271,1.219,2.372,3.02,1.276,6.412,1.541,6.332.006,0,.015,0,.018-.008a8,8,0,0,0-2.172-9.849c-.148-.125.43.063.614.128a6.63,6.63,0,0,1,4.187,6.347c0,.559,1.867-4.77-2.647-7.479A6.275,6.275,0,0,0,86.02,57.8a6.293,6.293,0,0,1,4.426.883c1.206.813,1.523,1.8,1.492,1.521-.351-3.567-4.556-4.976-7.105-3.906-.27.135,1-1.752,3.465-1.606a3.441,3.441,0,0,1,1.263.3.026.026,0,0,0,.029-.042,3.975,3.975,0,0,0-6.542.289.027.027,0,0,1-.045,0,12.479,12.479,0,0,1-1.353-3.845,17.254,17.254,0,0,1-1.4,3.845.026.026,0,0,1-.044,0,3.971,3.971,0,0,0-6.542-.289.026.026,0,0,0,.029.042,4.047,4.047,0,0,1,4.757,1.268.027.027,0,0,1-.032.041c-2.627-1.1-6.754.395-7.1,3.906,0,.029.037.045.052.019a4.262,4.262,0,0,1,.947-1.161,6.109,6.109,0,0,1,4.92-1.263,6.5,6.5,0,0,0-4.92,3.936c-.8,2.146-.029,4.973,0,4.273a6.517,6.517,0,0,1,4.774-6.4.028.028,0,0,1,.024.047c-5.251,4.616-2.075,10.284-2.124,9.836-.162-1.83-.3-5.1,2.737-7.563.023-.018.058.006.042.032a8.449,8.449,0,0,0,1.039,9.552c.02.023.06,0,.049-.023-.57-1.369-1.333-6.155,1.388-7.868a.027.027,0,0,1,.042.018,73.458,73.458,0,0,1-.354,18.329c-4.312-3.3-8.558-5.457-14.027-5.217a16.358,16.358,0,0,0-7.258,2.017.064.064,0,0,0,.055.115c7.954-2.543,14.839.542,21.239,5.868-3.233,2.817-6.167,5.766-7.871,6.655a1.784,1.784,0,1,0-2.833,2.168c2.794,2.788,7.164-2.744,12.39-7.368,5.03,4.446,9.6,10.154,12.39,7.368a2,2,0,0,0,.347-1.539,1.786,1.786,0,0,0-3.181-.628c-1.64-.826-4.519-3.736-7.871-6.655,6.446-5.373,13.255-8.372,21.237-5.868a.065.065,0,0,0,.057-.115" transform="translate(36.556 32.024)"/><path class="a" d="M115.71,122.24h2.073V103.672H115.71Zm-54.329-2.07-3.239-7.941a7.666,7.666,0,0,1,10.185,0l-3.239,7.941Zm-11.43,0a14.273,14.273,0,0,1-4.29-.321c-5.6-1.77-4.08-9.56,2.19-9.56h2.1Zm57.646,0c-3.34-.1-6.348.589-7.88-2.069.3-1.328.136-2.52.182-8.615H97.825V116.5c0,5.145-6.209,4.811-7.673,1.721-.588-1.242-.229-1.762-.336-8.732H87.741v7.167a3.231,3.231,0,0,1-3.5,3.517H80.225V109.486H78.151V120.17H67.265l3.629-8.665c-2.059-1.8-4.925-3.492-7.672-3.492-2.791,0-5.6,1.62-7.673,3.492L59.2,120.17h-7.18V108.194H48.707c-4.689,0-8.581,2.7-8.581,7.113,0,7.863,9.646,6.894,9.825,6.933-.032.255.258,2.031-.934,2.924a5.834,5.834,0,0,1-4.342.518,10.1,10.1,0,0,1-1.749-.622l-.648,1.992a11.322,11.322,0,0,0,3.965.88c3.952,0,5.78-1.971,5.78-5.3v-.388c33.84-.213,32.84.487,34.9-.646a5.322,5.322,0,0,0,1.9-1.734,5.281,5.281,0,0,0,2.047,1.942,7.584,7.584,0,0,0,6.261.05,4.433,4.433,0,0,0,2.008-1.992c.8,1.367,2.043,2.246,4.536,2.356v.024h5.986V103.672H107.6Zm186.054-.917a5.431,5.431,0,0,1-9.979-.065,5.681,5.681,0,0,1,0-4.2c2.213-5.485,10.408-3.91,10.408,2.109a5.409,5.409,0,0,1-.429,2.159m-20.114,0a5.473,5.473,0,0,1-8.865,1.656,5.605,5.605,0,0,1-.011-7.657,5.447,5.447,0,0,1,8.876,6m-50.427.917a13.477,13.477,0,0,1-4.239-.334c-5.46-1.794-4.158-9.573,2.19-9.573h2.049v9.907Zm79.521,0H295.5a7.511,7.511,0,1,0-13.687,0h-6.428a7.51,7.51,0,1,0-13.686,0h-6.584v-16.5h-2.073v16.5h-6.608c-.114-2.125.482-5.27-1.3-7.256a5.266,5.266,0,0,0-4.381-1.784h-9.175l3.9-7.457h-2.255l-3.981,7.431a3.807,3.807,0,0,0,.934,2.095c10.37.088,11.047-.218,12.273.3a2.818,2.818,0,0,1,1.75,2.005c.247,1.062.122,1.861.156,4.668H225.182V108.194h-3.267c-5.494,0-8.553,3.268-8.553,7.035,0,4.72,3.8,7.011,8.553,7.011h41.135a7.577,7.577,0,0,0,10.991,0h9.123a7.577,7.577,0,0,0,10.992,0h10.549V103.672H302.63v16.5Zm8.113,2.07h2.073V103.672h-2.073ZM157.962,126.8h2.13v-2.125h-2.13Zm20.273-6.626-3.241-7.941a7.666,7.666,0,0,1,10.187,0l-3.239,7.941Zm14.7,0h-8.812l3.627-8.665c-2.064-1.809-4.939-3.492-7.672-3.492-2.8,0-5.6,1.629-7.673,3.492l3.655,8.665h-7.722V108.194h-2.075V122.68c0,1.83-.133,3.182-1.969,3.182a3.225,3.225,0,0,1-1.062-.156l-.544,1.994c1.732.474,3.778.315,4.795-1.179.919-1.352.81-3.22.856-4.282h26.672V103.672H192.93v16.5ZM35.513,110c-2.306-2.517-4.975-1.6-5.884-1.81v2.069c1.513.058,2.213-.167,3.239.323a3.072,3.072,0,0,1,1.724,2.031c.281,1.086.123,1.934.169,7.553H25.04v2.07H36.834c-.086-7.842.214-8.674-.325-10.425a4.755,4.755,0,0,0-1-1.81M150.381,126.82h2.13v-2.125h-2.13Zm-12.608-6.65a13.488,13.488,0,0,1-4.239-.334c-5.467-1.8-4.15-9.573,2.19-9.573h2.049Zm22.291-11.976h-2.073V120.17h-7.828V108.194H148.09V120.17h-8.243V108.194c-2.608.081-6.5-.528-9.487,2-4.238,3.59-3.145,12.043,6.222,12.043h23.483ZM146.749,126.82h2.13v-2.125h-2.13ZM8.179,103.672H6.049V105.8h2.13Zm213.362,0h-2.13V105.8h2.13Zm-81.7,0h-2.13V105.8h2.13ZM20.411,126.82h2.13v-2.125h-2.13ZM136.2,103.672h-2.13V105.8h2.13Zm-124.394,0H9.681V105.8h2.13Zm4.968,23.148h2.13v-2.125h-2.13Zm-7.032-6.65a13.474,13.474,0,0,1-4.238-.334c-5.457-1.789-4.168-9.573,2.19-9.573H9.747Zm12.39-11.976H20.064V120.17H11.821V108.194c-2.486.076-4.462-.248-6.792.529a7.194,7.194,0,0,0-4.42,3.713A7.076,7.076,0,0,0,.7,118.385c1.5,2.835,4.644,3.855,7.852,3.855H22.137ZM201.044,122.24h2.073V103.672h-2.073Zm24.127-18.568h-2.13V105.8h2.13Z" transform="translate(0.001 64.655)"/><path class="a" d="M1.251,123.484h2.6v7.433l7.045-7.433h3.2l-6.157,6.357,6.431,8.425H11.217l-5.056-6.652-2.307,2.366v4.286h-2.6" transform="translate(0.781 77.01)"/><path class="a" d="M10.792,123.484h2.6v14.782h-2.6Z" transform="translate(6.731 77.01)"/><path class="a" d="M14.863,123.484h2.413L25.211,133.7V123.484h2.559v14.782H25.59l-8.167-10.516v10.516h-2.56" transform="translate(9.27 77.01)"/><path class="a" d="M24.8,131.015v-.042a7.54,7.54,0,0,1,7.638-7.646,8.011,8.011,0,0,1,5.693,2.007l-1.65,1.965c-4.01-3.406-8.95-.953-8.95,3.632v.042a4.939,4.939,0,0,0,5.033,5.279,6.055,6.055,0,0,0,3.577-1.119v-2.767H32.35v-2.258h6.306v6.207c-5.3,4.525-13.859,2.2-13.859-5.3" transform="translate(15.466 76.912)"/><path class="a" d="M41.069,135.9c6.907,0,6.824-10.052,0-10.052H38.15V135.9Zm-5.522-12.416h5.522c10.567,0,10.424,14.782,0,14.782H35.547Z" transform="translate(22.17 77.01)"/><path class="a" d="M58.056,131.015v-.042a5.068,5.068,0,0,0-5.037-5.257,5,5,0,0,0-4.993,5.215v.042a5.069,5.069,0,0,0,5.035,5.259,5,5,0,0,0,4.994-5.217m-12.759,0v-.042a7.745,7.745,0,0,1,15.488-.042v.042a7.745,7.745,0,0,1-15.488.042" transform="translate(28.25 76.912)"/><path class="a" d="M56.827,123.484H59.6l4.507,6.99,4.506-6.99h2.772v14.782h-2.6v-10.6l-4.674,6.969h-.084l-4.634-6.926v10.559h-2.56" transform="translate(35.441 77.01)"/><path class="a" d="M84.407,131.015v-.042a5.068,5.068,0,0,0-5.037-5.257,5,5,0,0,0-4.993,5.215v.042a5.069,5.069,0,0,0,5.035,5.259,5,5,0,0,0,4.994-5.217m-12.759,0v-.042a7.745,7.745,0,0,1,15.488-.042v.042a7.745,7.745,0,0,1-15.488.042" transform="translate(44.684 76.912)"/><path class="a" d="M83.179,123.484H94.2v2.366h-8.42v4.033H93.25v2.364H85.782v6.019h-2.6" transform="translate(51.875 77.01)"/><path class="a" d="M95.027,136.2l1.565-1.859a6.822,6.822,0,0,0,4.676,1.922c1.607,0,2.624-.739,2.624-1.859v-.041c0-3.3-8.274-1.049-8.274-6.675v-.042c0-4.536,6.35-5.694,10.432-2.427l-1.4,1.963c-3.406-2.535-6.431-1.538-6.431.234v.042c0,3.255,8.272,1.2,8.272,6.65v.042c0,5.183-7.349,5.717-11.468,2.049" transform="translate(59.264 76.927)"/><path class="a" d="M113.23,132.437l-2.561-5.913-2.539,5.913Zm-3.725-9.018h2.411l6.517,14.887h-2.75l-1.5-3.569h-7l-1.521,3.569h-2.668Z" transform="translate(64.229 76.97)"/><path class="a" d="M113.444,132v-8.511h2.6v8.406c0,2.746,1.417,4.223,3.744,4.223,2.307,0,3.725-1.393,3.725-4.118v-8.511h2.6v8.384c0,4.413-2.5,6.631-6.37,6.631-3.851,0-6.3-2.218-6.3-6.5" transform="translate(70.75 77.01)"/><path class="a" d="M129.118,135.9c6.907,0,6.826-10.052,0-10.052H126.2V135.9ZM123.6,123.484h5.522c10.567,0,10.424,14.782,0,14.782H123.6Z" transform="translate(77.081 77.01)"/><path class="a" d="M133.875,123.484h2.6v14.782h-2.6Z" transform="translate(83.492 77.01)"/><path class="a" d="M151.286,132.437l-2.561-5.913-2.539,5.913Zm-3.725-9.018h2.411l6.517,14.887h-2.75l-1.5-3.569h-7l-1.521,3.569h-2.668Z" transform="translate(87.963 76.97)"/><path class="a" d="M158.482,130.812c1.862,0,3.048-.971,3.048-2.471V128.3c0-1.583-1.143-2.45-3.069-2.45h-3.786v4.964Zm-6.41-7.328h6.6c3.13,0,5.5,1.573,5.5,4.666a4.434,4.434,0,0,1-3.535,4.52l4,5.6H161.57l-3.639-5.153h-3.257v5.153h-2.6Z" transform="translate(94.84 77.01)"/><path class="a" d="M171.233,132.437l-2.561-5.913-2.539,5.913Zm-3.725-9.018h2.413l6.516,14.887h-2.75l-1.5-3.569h-7l-1.521,3.569h-2.668Z" transform="translate(100.403 76.97)"/><path class="a" d="M178.894,135.965c1.778,0,2.856-.7,2.856-2.028v-.042c0-1.245-.994-1.986-3.046-1.986h-4.126v4.056Zm-.762-6.251c1.671,0,2.793-.654,2.793-2.007v-.042c0-1.161-.93-1.879-2.6-1.879h-3.744v3.928Zm-6.115-6.23h6.644c2.6,0,4.866,1.218,4.866,3.759a3.483,3.483,0,0,1-2.116,3.337c1.736.591,2.94,1.585,2.94,3.59v.042c0,2.64-2.179,4.054-5.48,4.054h-6.855Z" transform="translate(107.28 77.01)"/><path class="a" d="M181.6,123.484h2.6v14.782h-2.6Z" transform="translate(113.255 77.01)"/><path class="a" d="M194.975,132.437l-2.56-5.913-2.539,5.913Zm-3.725-9.018h2.411l6.517,14.887h-2.75l-1.5-3.569h-7l-1.521,3.569h-2.668Z" transform="translate(115.209 76.97)"/></g></g></svg>