<svg xmlns="http://www.w3.org/2000/svg" xmlns:xlink="http://www.w3.org/1999/xlink" width="1920" height="157" viewBox="0 0 1920 157"><defs><style>.a{fill:#fff;stroke:#707070;}.b{opacity:0.14;clip-path:url(#a);}.c{fill:#9b945f;}.d{fill:url(#b);}</style><clipPath id="a"><rect class="a" width="1920" height="157" transform="translate(0 38)"/></clipPath><linearGradient id="b" x1="0.5" y1="1" x2="0.5" gradientUnits="objectBoundingBox"><stop offset="0" stop-color="#008755" stop-opacity="0.502"/><stop offset="1" stop-color="#008755"/></linearGradient></defs><g class="b" transform="translate(0 -38)"><path class="c" d="M60.936,2062.942c137.106,410.3,342.249,426.863,716.667,240.081s346.675,226.13,742.373-128.192,604.336,352.677,723.114,0S2243.09,0,2243.09,0H60.936S-76.17,1652.642,60.936,2062.942Z" transform="matrix(0.996, 0.087, -0.087, 0.996, -22.185, -2313.052)"/><path class="d" d="M26.075,2308.927c91.922,283.416,366.333-129.706,723.019,31.687s350.914-71.089,773.834,4.451,560.224,236.991,697.47-166.923S2313.935,0,2313.935,0L114.8,242.844S-65.847,2025.512,26.075,2308.927Z" transform="translate(-228.072 -2311.406) rotate(1)"/></g></svg>